<svg xmlns="http://www.w3.org/2000/svg" xmlns:xlink="http://www.w3.org/1999/xlink" viewBox="0 0 43.49 16.96"><defs><style>.cls-1{isolation:isolate;}.cls-2{fill:url(#Áåçûìÿííûé_ãðàäèåíò_18);}.cls-21,.cls-3{opacity:0.5;}.cls-10,.cls-11,.cls-12,.cls-13,.cls-14,.cls-15,.cls-16,.cls-17,.cls-25,.cls-26,.cls-27,.cls-28,.cls-29,.cls-30,.cls-31,.cls-32,.cls-33,.cls-34,.cls-35,.cls-36,.cls-37,.cls-38,.cls-4,.cls-5,.cls-6,.cls-7,.cls-8,.cls-9{mix-blend-mode:color-dodge;}.cls-4{fill:url(#Áåçûìÿííûé_ãðàäèåíò_2);}.cls-5{fill:url(#Áåçûìÿííûé_ãðàäèåíò_2-2);}.cls-6{fill:url(#Áåçûìÿííûé_ãðàäèåíò_2-3);}.cls-7{fill:url(#Áåçûìÿííûé_ãðàäèåíò_2-4);}.cls-8{fill:url(#Áåçûìÿííûé_ãðàäèåíò_2-5);}.cls-9{fill:url(#Áåçûìÿííûé_ãðàäèåíò_2-6);}.cls-10{fill:url(#Áåçûìÿííûé_ãðàäèåíò_2-7);}.cls-11{fill:url(#Áåçûìÿííûé_ãðàäèåíò_2-8);}.cls-12{fill:url(#Áåçûìÿííûé_ãðàäèåíò_2-9);}.cls-13{fill:url(#Áåçûìÿííûé_ãðàäèåíò_2-10);}.cls-14{fill:url(#Áåçûìÿííûé_ãðàäèåíò_2-11);}.cls-15{fill:url(#Áåçûìÿííûé_ãðàäèåíò_2-12);}.cls-16{fill:url(#Áåçûìÿííûé_ãðàäèåíò_2-13);}.cls-17{fill:url(#Áåçûìÿííûé_ãðàäèåíò_2-14);}.cls-18{opacity:0.25;}.cls-19,.cls-21,.cls-23{fill:#fff;}.cls-19{opacity:0.1;}.cls-20{opacity:0.15;}.cls-22{opacity:0.52;}.cls-24{opacity:0.43;}.cls-25{fill:url(#Áåçûìÿííûé_ãðàäèåíò_2-15);}.cls-26{fill:url(#Áåçûìÿííûé_ãðàäèåíò_2-16);}.cls-27{fill:url(#Áåçûìÿííûé_ãðàäèåíò_2-17);}.cls-28{fill:url(#Áåçûìÿííûé_ãðàäèåíò_2-18);}.cls-29{fill:url(#Áåçûìÿííûé_ãðàäèåíò_2-19);}.cls-30{fill:url(#Áåçûìÿííûé_ãðàäèåíò_2-20);}.cls-31{fill:url(#Áåçûìÿííûé_ãðàäèåíò_2-21);}.cls-32{fill:url(#Áåçûìÿííûé_ãðàäèåíò_2-22);}.cls-33{fill:url(#Áåçûìÿííûé_ãðàäèåíò_2-23);}.cls-34{fill:url(#Áåçûìÿííûé_ãðàäèåíò_2-24);}.cls-35{fill:url(#Áåçûìÿííûé_ãðàäèåíò_2-25);}.cls-36{fill:url(#Áåçûìÿííûé_ãðàäèåíò_2-26);}.cls-37{fill:url(#Áåçûìÿííûé_ãðàäèåíò_2-27);}.cls-38{fill:url(#Áåçûìÿííûé_ãðàäèåíò_2-28);}</style><radialGradient id="Áåçûìÿííûé_ãðàäèåíò_18" cx="375.3" cy="582.96" r="21.44" gradientTransform="translate(-761.18 -871) scale(2.09 1.51)" gradientUnits="userSpaceOnUse"><stop offset="0" stop-color="#2b6791"/><stop offset="0.16" stop-color="#1f4b69"/><stop offset="0.33" stop-color="#143043"/><stop offset="0.5" stop-color="#0b1b26"/><stop offset="0.67" stop-color="#050c11"/><stop offset="0.84" stop-color="#010304"/><stop offset="1"/></radialGradient><radialGradient id="Áåçûìÿííûé_ãðàäèåíò_2" cx="38263.84" cy="-41741.43" r="1.11" gradientTransform="matrix(-0.45, -0.48, 0.5, -0.44, 38373.98, 696.64)" gradientUnits="userSpaceOnUse"><stop offset="0" stop-color="#fff"/><stop offset="0.11" stop-color="#cdcdcd"/><stop offset="0.24" stop-color="#979797"/><stop offset="0.37" stop-color="#696969"/><stop offset="0.5" stop-color="#434343"/><stop offset="0.63" stop-color="#262626"/><stop offset="0.76" stop-color="#111"/><stop offset="0.88" stop-color="#040404"/><stop offset="1"/></radialGradient><radialGradient id="Áåçûìÿííûé_ãðàäèåíò_2-2" cx="38269.34" cy="-41746.33" r="0.51" xlink:href="#Áåçûìÿííûé_ãðàäèåíò_2"/><radialGradient id="Áåçûìÿííûé_ãðàäèåíò_2-3" cx="38255.87" cy="-41738.96" r="0.51" xlink:href="#Áåçûìÿííûé_ãðàäèåíò_2"/><radialGradient id="Áåçûìÿííûé_ãðàäèåíò_2-4" cx="38264.4" cy="-41746.75" r="0.51" xlink:href="#Áåçûìÿííûé_ãðàäèåíò_2"/><radialGradient id="Áåçûìÿííûé_ãðàäèåíò_2-5" cx="38261.8" cy="-41742.14" r="0.51" xlink:href="#Áåçûìÿííûé_ãðàäèåíò_2"/><radialGradient id="Áåçûìÿííûé_ãðàäèåíò_2-6" cx="38264.01" cy="-41736.9" r="0.51" xlink:href="#Áåçûìÿííûé_ãðàäèåíò_2"/><radialGradient id="Áåçûìÿííûé_ãðàäèåíò_2-7" cx="38270.02" cy="-41741.17" r="0.51" xlink:href="#Áåçûìÿííûé_ãðàäèåíò_2"/><radialGradient id="Áåçûìÿííûé_ãðàäèåíò_2-8" cx="38270.74" cy="-41753" r="2.11" xlink:href="#Áåçûìÿííûé_ãðàäèåíò_2"/><radialGradient id="Áåçûìÿííûé_ãðàäèåíò_2-9" cx="38272.5" cy="-41756.73" r="2.11" xlink:href="#Áåçûìÿííûé_ãðàäèåíò_2"/><radialGradient id="Áåçûìÿííûé_ãðàäèåíò_2-10" cx="38259.97" cy="-41740.81" r="1.11" xlink:href="#Áåçûìÿííûé_ãðàäèåíò_2"/><radialGradient id="Áåçûìÿííûé_ãðàäèåíò_2-11" cx="38258.22" cy="-41736.83" r="1.11" xlink:href="#Áåçûìÿííûé_ãðàäèåíò_2"/><radialGradient id="Áåçûìÿííûé_ãðàäèåíò_2-12" cx="38251.58" cy="-41735.19" r="1.6" xlink:href="#Áåçûìÿííûé_ãðàäèåíò_2"/><radialGradient id="Áåçûìÿííûé_ãðàäèåíò_2-13" cx="38252.72" cy="-41729.11" r="1.6" xlink:href="#Áåçûìÿííûé_ãðàäèåíò_2"/><radialGradient id="Áåçûìÿííûé_ãðàäèåíò_2-14" cx="38267.99" cy="-41751.47" r="1.11" xlink:href="#Áåçûìÿííûé_ãðàäèåíò_2"/><radialGradient id="Áåçûìÿííûé_ãðàäèåíò_2-15" cx="38268.38" cy="-41751.8" r="0.66" xlink:href="#Áåçûìÿííûé_ãðàäèåíò_2"/><radialGradient id="Áåçûìÿííûé_ãðàäèåíò_2-16" cx="38271.69" cy="-41754.74" r="0.31" xlink:href="#Áåçûìÿííûé_ãðàäèåíò_2"/><radialGradient id="Áåçûìÿííûé_ãðàäèåíò_2-17" cx="38263.6" cy="-41750.32" r="0.31" xlink:href="#Áåçûìÿííûé_ãðàäèåíò_2"/><radialGradient id="Áåçûìÿííûé_ãðàäèåíò_2-18" cx="38268.72" cy="-41754.99" r="0.31" xlink:href="#Áåçûìÿííûé_ãðàäèåíò_2"/><radialGradient id="Áåçûìÿííûé_ãðàäèåíò_2-19" cx="38267.16" cy="-41752.22" r="0.31" xlink:href="#Áåçûìÿííûé_ãðàäèåíò_2"/><radialGradient id="Áåçûìÿííûé_ãðàäèåíò_2-20" cx="38268.48" cy="-41749.08" r="0.31" xlink:href="#Áåçûìÿííûé_ãðàäèåíò_2"/><radialGradient id="Áåçûìÿííûé_ãðàäèåíò_2-21" cx="38272.09" cy="-41751.64" r="0.31" xlink:href="#Áåçûìÿííûé_ãðàäèåíò_2"/><radialGradient id="Áåçûìÿííûé_ãðàäèåíò_2-22" cx="38272.53" cy="-41758.74" r="1.27" xlink:href="#Áåçûìÿííûé_ãðàäèåíò_2"/><radialGradient id="Áåçûìÿííûé_ãðàäèåíò_2-23" cx="38273.58" cy="-41760.99" r="1.27" xlink:href="#Áåçûìÿííûé_ãðàäèåíò_2"/><radialGradient id="Áåçûìÿííûé_ãðàäèåíò_2-24" cx="38266.06" cy="-41751.43" r="0.66" xlink:href="#Áåçûìÿííûé_ãðàäèåíò_2"/><radialGradient id="Áåçûìÿííûé_ãðàäèåíò_2-25" cx="38265.01" cy="-41749.04" r="0.66" xlink:href="#Áåçûìÿííûé_ãðàäèåíò_2"/><radialGradient id="Áåçûìÿííûé_ãðàäèåíò_2-26" cx="38261.02" cy="-41748.05" r="0.96" xlink:href="#Áåçûìÿííûé_ãðàäèåíò_2"/><radialGradient id="Áåçûìÿííûé_ãðàäèåíò_2-27" cx="38261.7" cy="-41744.4" r="0.96" xlink:href="#Áåçûìÿííûé_ãðàäèåíò_2"/><radialGradient id="Áåçûìÿííûé_ãðàäèåíò_2-28" cx="38270.87" cy="-41757.82" r="0.66" xlink:href="#Áåçûìÿííûé_ãðàäèåíò_2"/></defs><title>Background</title><g class="cls-1"><g id="Ñëîé_1" data-name="Ñëîé 1"><rect class="cls-2" width="43.49" height="16.96"/><g class="cls-3"><path class="cls-4" d="M414.83,589.25a.75.75,0,0,1,1.05,0,.72.72,0,0,1-.05,1,.75.75,0,0,1-1.05-.05A.7.7,0,0,1,414.83,589.25Z" transform="translate(-389.27 -583.25)"/><path class="cls-5" d="M410.18,589a.36.36,0,0,1,.49,0,.33.33,0,0,1,0,.47.35.35,0,0,1-.48,0A.32.32,0,0,1,410.18,589Z" transform="translate(-389.27 -583.25)"/><path class="cls-6" d="M419.92,592.3a.35.35,0,0,1,.48,0,.32.32,0,0,1,0,.47.34.34,0,0,1-.48,0A.32.32,0,0,1,419.92,592.3Z" transform="translate(-389.27 -583.25)"/><path class="cls-7" d="M412.21,591.61a.34.34,0,0,1,.48,0,.32.32,0,0,1,0,.47.35.35,0,0,1-.48,0A.32.32,0,0,1,412.21,591.61Z" transform="translate(-389.27 -583.25)"/><path class="cls-8" d="M415.67,590.84a.34.34,0,1,1,.46.49.36.36,0,0,1-.49,0A.32.32,0,0,1,415.67,590.84Z" transform="translate(-389.27 -583.25)"/><path class="cls-9" d="M417.26,587.46a.35.35,0,0,1,.48,0,.32.32,0,0,1,0,.47.34.34,0,0,1-.48,0A.32.32,0,0,1,417.26,587.46Z" transform="translate(-389.27 -583.25)"/><path class="cls-10" d="M412.43,586.44a.37.37,0,0,1,.49,0,.34.34,0,1,1-.49,0Z" transform="translate(-389.27 -583.25)"/><path class="cls-11" d="M405.52,590.52a1.45,1.45,0,0,1,2,.09,1.35,1.35,0,0,1-.09,1.95,1.44,1.44,0,0,1-2-.09A1.35,1.35,0,0,1,405.52,590.52Z" transform="translate(-389.27 -583.25)"/><path class="cls-12" d="M402.88,591.32a1.43,1.43,0,0,1,2,.09,1.36,1.36,0,0,1-.1,2,1.45,1.45,0,0,1-2-.09A1.36,1.36,0,0,1,402.88,591.32Z" transform="translate(-389.27 -583.25)"/><path class="cls-13" d="M416.88,590.84a.75.75,0,0,1,1.05,0,.72.72,0,0,1-.05,1,.76.76,0,0,1-1.05,0A.72.72,0,0,1,416.88,590.84Z" transform="translate(-389.27 -583.25)"/><path class="cls-14" d="M419.64,589.94a.76.76,0,0,1,1.05,0,.71.71,0,0,1-.05,1,.75.75,0,0,1-1.05,0A.72.72,0,0,1,419.64,589.94Z" transform="translate(-389.27 -583.25)"/><path class="cls-15" d="M423.23,592.19a1.09,1.09,0,0,1,1.51.06,1,1,0,0,1-.07,1.48,1.08,1.08,0,0,1-1.51-.07A1,1,0,0,1,423.23,592.19Z" transform="translate(-389.27 -583.25)"/><path class="cls-16" d="M425.73,589a1.08,1.08,0,0,1,1.51.07,1,1,0,0,1-.07,1.47,1.09,1.09,0,0,1-1.51-.06A1,1,0,0,1,425.73,589Z" transform="translate(-389.27 -583.25)"/><path class="cls-17" d="M408,591.66a.77.77,0,0,1,1,.05.72.72,0,0,1,0,1,.75.75,0,0,1-1.05,0A.72.72,0,0,1,408,591.66Z" transform="translate(-389.27 -583.25)"/><g class="cls-18"><path class="cls-19" d="M432.75,598.52l-1.87-3,1.87-.38v-.69l-2.26.45-1.34-2.14,3.6.07v-.73l-3.54-.07,3.54-3.1v-1.29l-5.15,3L423,583.58l9.79,3.37v-.73l-8.58-3h-3.09l-3.84,4.82-4-1.33v0a.63.63,0,0,0-.63-.57.7.7,0,0,0-.48.22h0l-4.89-1.85v-.09a.92.92,0,0,0-.93-.85h-.08a.94.94,0,0,0-.85,1,.67.67,0,0,0,0,.19l-.22.22-5.4,4h-.13a.69.69,0,0,0-.49.25l-7.87-2.55v-.1a.63.63,0,0,0-.63-.57.66.66,0,0,0-.48.22.58.58,0,0,0-.14.32l-.83.57V588l1-.65,1.17,7.35h-2.12v.72l2.47,0L401.82,598a1,1,0,0,0,1,.83h.09a1.1,1.1,0,0,0,.72-.37,1.08,1.08,0,0,0,.24-.77,1,1,0,0,0-.77-.92l.45-3.92,6.69,4.32a.61.61,0,0,0,.56.35.63.63,0,0,0,.48-.22.68.68,0,0,0,.14-.46.73.73,0,0,0-.07-.24l.75-.94,2.81,2.82a.62.62,0,0,0,.58.42.68.68,0,0,0,.55-.33l14.06-2.85,2.63,4.21Zm-34.06-8.67-2.45,1.7-4.35-3.94ZM391,587.69l4.68,4.26-3.59,2.49Zm1.67,7.23,3.56-2.48,5.17,4.7Zm4.13-2.88,2.53-1.75,2.48,6.29Zm5.68,4.38-2.25-5.78,2.72,1.76Zm.56-4.81-2.72-1.76a.54.54,0,0,0,0-.22l3.15-2Zm28.29-2.32-2.74,2.39h-.14a.33.33,0,0,0-.17,0l-.29-.46ZM422,583.41l.06,0,4.95,7.62-.33.19-7-2.35Zm5.58,8.9-6.16,2.82L426.7,592Zm-7-7.25L419,588.67l-1.08-.36Zm-3.79,3.62L414.07,592l-1.19-4.66Zm-11.08-3.14.29-.21.06,0,1.83,5-3.45-3.44Zm-2,6.48.51-4.38,4.25,4.27L410,596.1Zm6.85,3.62-.95-2.59,1.19,1.2ZM409,591.51l-2.26-6.2a.78.78,0,0,0,.24-.16l5,1.92-1.11,6.33Zm2.19,4.15.14-.83.29.29Zm.87-1.09-.58-.58,1-5.55,1.09,4.26Zm.5.5,1.2-1.51.93,3.63Zm2.85,2.19-1.12-4.36,3.18-4,1.27.42Zm.62.27,3.36-8,6.46,2.17Zm2.09-.1,10-4.59a.62.62,0,0,0,.24.08l1.34,2.15Z" transform="translate(-389.27 -583.25)"/><g class="cls-20"><path class="cls-21" d="M432.75,598.7l-2-3.27,2-.41v-.47l-2.3.47L429,592.64l3.79.07v-.5l-3.77-.08v0l3.78-3.32v-1l-5.18,3.07-4.87-7.48,10.05,3.46v-.49l-8.86-3.07h-2.65l-3.95,4.93-4.13-1.38a.49.49,0,0,0,0-.12.53.53,0,0,0-.52-.47.54.54,0,0,0-.39.19l-.05.06-5-1.91a.76.76,0,0,0,0-.15.82.82,0,0,0-.82-.75.83.83,0,0,0-.81.89.64.64,0,0,0,0,.23l-.26.27-5.46,4.1-.15,0a.59.59,0,0,0-.45.27l-8-2.61a.42.42,0,0,0,0-.16.5.5,0,0,0-.51-.47.52.52,0,0,0-.39.19.43.43,0,0,0-.12.31l-1,.64v.57l1.05-.72,1.22,7.66-2.27,0v.5l2.49,0,10.17,2.56a.93.93,0,0,0,.92.81h.08a.93.93,0,0,0,.64-.33,1,1,0,0,0,.22-.69,1,1,0,0,0-.79-.85l.49-4.19,6.86,4.44a.51.51,0,0,0,.47.31.54.54,0,0,0,.4-.18.53.53,0,0,0,.12-.38.46.46,0,0,0-.1-.25l.88-1.11,2.91,2.93a.52.52,0,0,0,.49.37.53.53,0,0,0,.47-.31l14.19-2.88,2.57,4.11Zm-.45-10.14-3.69,3.22h-.16a.57.57,0,0,0-.22.07l-.41-.63Zm-4.42,3.71-8.38,3.85,7.19-4.25Zm-.47-.82.12.18-.27-.09Zm-5.47-8.2a.55.55,0,0,0,.18.06l5,7.76-.47.28-7.16-2.41Zm-1,1.09-1.88,4.45-1.32-.44Zm-8.17,2.87L417,588.6,414,592.27l-1.29-5Zm-7.21-1.76.36-.27a.52.52,0,0,0,.16.06l2,5.54-3.88-3.88ZM399,589.79l-2.71,1.88-4.81-4.35Zm-8.13-2.42,5,4.57L392,594.61Zm1.57,7.57,3.84-2.66,5.57,5.06Zm4.22-2.93,2.77-1.92,2.7,6.88Zm5.92,4.84h0L400,590.34l3.07,2Zm.59-5.07-2.95-1.91a.45.45,0,0,0,.06-.28v0l3.41-2.18Zm.43.28.55-4.68,4.43,4.45,1.65,4.52Zm7,4-1.26-3.45,1.59,1.59Zm-1.64-4.5-2.3-6.31A.79.79,0,0,0,407,585l5.19,2L411,593.62Zm2.1,4.5.26-1.47.51.51Zm1.07-1.34-.71-.7,1.07-6.12,1.24,4.82Zm.34.35,1.41-1.76,1.08,4.24Zm3,2.53-1.21-4.73,3.26-4.09,1.46.49Zm.41.18,3.54-8.37,6.78,2.28Zm1.39-.06,11-5a.57.57,0,0,0,.29.11l1.46,2.33Z" transform="translate(-389.27 -583.25)"/></g><g class="cls-22"><polygon class="cls-23" points="43.49 3.27 34.03 0 33.92 0 43.49 3.29 43.49 3.27"/><path class="cls-23" d="M432.75,599.09l-2.4-3.85,2.4-.48h0l-2.41.49-1.71-2.73.12-.13,4,.08v-.06l-4-.08v-.1a.26.26,0,0,0-.1-.2l4.07-3.57v0l-4.1,3.58a.27.27,0,0,0-.18,0,.28.28,0,0,0-.21.12l-.16-.06-.6-.92,5.25-3.1h0l-5.25,3.11-5.11-7.85h0l5.11,7.86-.76.45L419.23,589l2.45-5.79h0L419.22,589l-1.82-.61,4.13-5.18h0l-4.12,5.16-4.5-1.51a.29.29,0,0,0-.23-.49.29.29,0,0,0-.27.31h0l-5.46-2.07a.66.66,0,0,0,0-.28.59.59,0,1,0-1.18.11.57.57,0,0,0,.11.28l-.37.39-5.61,4.21a.23.23,0,0,0-.2-.06.28.28,0,0,0-.26.31h0l-8.54-2.76a.3.3,0,0,0-.18-.54.31.31,0,0,0-.27.32l0,.06-1.19.81v0l1.19-.81,0,0,1.31,8.2-2.53,0V595h2.54l10.34,2.6v.11a.71.71,0,1,0,.65-.77h0l.56-4.81,7.23,4.68a.3.3,0,0,0,.31.24.29.29,0,0,0,.26-.32.27.27,0,0,0-.18-.24l1.17-1.47,3.13,3.13h0a.29.29,0,0,0,.32.26.29.29,0,0,0,.26-.28l14.48-2.94,2.46,3.94Zm-4.51-7,0,.07-.06-.1Zm-.76-1,.59.9-1.34-.45ZM412.68,587l.12,0,4.53,1.52-3.41,4.27-1.49-5.86A.27.27,0,0,0,412.68,587Zm-6.28-2a.57.57,0,0,0,.47-.33l5.52,2.1v0l-1.26,7.22-2.41-2.41L406.31,585Zm-.52-.25.05.06-.31.23Zm.08.1a.62.62,0,0,0,.33.14l2.41,6.6L404,586.87h0l1.47-1.6Zm-.66.49-1.37,1.45-4,2.58h0Zm-14.54,1.55.12,0,8.57,2.82-3.23,2.24-5.54-5Zm-.25-.11a.32.32,0,0,0,.17.1l5.53,5-4.37,3Zm11.64,10.82L391.86,595l4.39-3,6,5.42A.72.72,0,0,0,402.15,597.63Zm.07-.26-6-5.41,3.21-2.23,0,.06,2.9,7.36A.79.79,0,0,0,402.22,597.37Zm.52-.38a.77.77,0,0,0-.33.15l-2.85-7.3a.41.41,0,0,0,.18,0h0l3.55,2.29Zm.56-4.86-3.49-2.26a.3.3,0,0,0,.2-.3l-.06-.14,4-2.53Zm7.24,4.69-7.23-4.68.61-5.25h0l4.78,4.79,1.84,5Zm0-.13-1.82-5,2.38,2.39-.43,2.47A.29.29,0,0,0,410.56,596.69Zm.33-.16-.09,0-.11,0,.43-2.47,1,1ZM412.1,595l-1-1,1.27-7.21,0,0,1.5,5.86Zm3.14,3.13L412.12,595l1.81-2.26,1.34,5.26Zm0-.12-1.35-5.26,3.43-4.3,1.84.62-3.71,8.8A.29.29,0,0,0,415.28,598Zm.22-.14,3.71-8.8,7.45,2.5L415.76,598A.27.27,0,0,0,415.5,597.89Zm.26.14,10.91-6.43,1.44.48.1.15v0l0,.06L415.77,598Zm.05.16v0l0-.08,12.45-5.69a.28.28,0,0,0,.28.15l.06,0,1.71,2.73Z" transform="translate(-389.27 -583.25)"/></g></g><g class="cls-24"><path class="cls-19" d="M432.75,593.25h-.52l.52-3.3v-2.69h-.06a.43.43,0,0,0-.43.39v.07l-5.46,1.77a.43.43,0,0,0-.34-.17h-.09l-3.75-2.81-.14-.16a.59.59,0,0,0,0-.13.64.64,0,0,0-.58-.7h-.06a.64.64,0,0,0-.64.59v.06l-3.39,1.28h0a.43.43,0,0,0-.76.24v0l-2.76.93-3-3.77a.44.44,0,0,0-.85.08h0l-7.8,2.71h0a.46.46,0,0,0-.33-.16.44.44,0,0,0-.44.4.43.43,0,0,0,.33.45l-.33,3.12-5.32.11a.45.45,0,0,0-.37-.22.44.44,0,0,0-.44.4.47.47,0,0,0,.1.32.49.49,0,0,0,.34.15h.11l4.4,7.49a.5.5,0,0,0,0,.16.69.69,0,0,0,0,.32h1.37a1.06,1.06,0,0,0,0-.19.75.75,0,0,0-.19-.56l3.45-5.53,9.75,2a.45.45,0,0,0,.38.23.42.42,0,0,0,.4-.29l2-2,.53.66a.3.3,0,0,0-.05.16.41.41,0,0,0,.1.32.47.47,0,0,0,.33.16.43.43,0,0,0,.39-.25l4.63-3,.32,2.72a.74.74,0,0,0-.54.64.78.78,0,0,0,.17.53.74.74,0,0,0,.5.26h.06a.71.71,0,0,0,.7-.58l7-1.76h.76Zm-10.67-6.48h0l.2.14.88,1-2.39,2.39Zm-4.75,1.41-.83,3.23-1.86-2.33Zm-3.52.64-.75.25-1.05-2.5ZM411,585.44h0l1.61,3.8-4.85,1.63-.23-.14Zm.44,8.11-4.27-2,.61-.2Zm-1.08-8-3.21,4.93-4.1-2.42Zm-3.46,5.32-.21.32a.27.27,0,0,0-.12,0h-.09l-1.9-1.66Zm-4.21-2.38,3.34,2.92-3.66.07Zm-.85,3.51-.07.72-3.21-.65Zm-.81,7.34-4.19-7.14,4.88,1-.66,6.13Zm.52-.21.63-5.85,2.7.55Zm3.59-5.73-2.91-.59.09-.82,3.75-.07Zm.53.11.93-1.49a.44.44,0,0,0,.16-.06l7,3.19Zm2.7-2.32,4.47-1.5,2.33,5.52Zm7.24,3.84-2.32-5.49.88-.3,2.21,2.77Zm.49,0,.65-2.51.83,1Zm.8-3.11.75-3,.68,3.85-.4.4Zm1.33,1.67.2-.2.1.58Zm.5-1.18-.77-4.4,3.49-1.33a.61.61,0,0,0,.16.12L420,591Zm.27,1.55-.17-1,.83-.83Zm.39.31,1.06-2.9,2.95-3,.35,3Zm12.53-5.88-3,2.73-1.7-1.18Zm-7.73,2.77-.32-2.77,2.19,1.4a.26.26,0,0,0,0,.15Zm.39,3.34-.32-2.79,1.89-1.22Zm2.19-4.26,1.75,1.22L425,594.56ZM425.3,595l3.59-3.26,2.47,1.71Zm6.46-1.88-2.49-1.73,3.25-3Z" transform="translate(-389.27 -583.25)"/><g class="cls-20"><path class="cls-21" d="M432.75,593.31h-.62l.62-3.94v-2h-.06a.36.36,0,0,0-.36.33.45.45,0,0,0,0,.11l-5.58,1.8a.36.36,0,0,0-.31-.18l-.1,0-3.79-2.84-.18-.19a.53.53,0,0,0,0-.16.58.58,0,0,0-.57-.62.56.56,0,0,0-.56.52v.11l-3.5,1.32,0,0a.36.36,0,0,0-.63.2v.07l-2.86,1-3-3.8a.38.38,0,0,0-.35-.3.37.37,0,0,0-.36.33V585l-7.91,2.73,0,0a.36.36,0,0,0-.27-.12.37.37,0,0,0-.36.32.37.37,0,0,0,.34.39l-.35,3.26-5.43.1a.38.38,0,0,0-.33-.21.36.36,0,0,0-.36.32.35.35,0,0,0,.09.26.34.34,0,0,0,.27.13.32.32,0,0,0,.14,0l4.46,7.58a.58.58,0,0,0,0,.18.7.7,0,0,0,0,.32H402A.73.73,0,0,0,402,600a.67.67,0,0,0-.22-.54l3.52-5.62,9.84,2a.37.37,0,0,0,.33.22.35.35,0,0,0,.33-.26l2-2,.61.77a.35.35,0,0,0-.06.18.37.37,0,0,0,.08.26.34.34,0,0,0,.27.12.35.35,0,0,0,.33-.21l4.76-3.08.34,2.91a.66.66,0,0,0-.55.58.68.68,0,0,0,.15.48.7.7,0,0,0,.45.23h0a.65.65,0,0,0,.64-.56l7.05-1.78h.78Zm-.55-5.17-3.33,3L427,589.85ZM422,586.7l.11-.05.25.19.94,1-2.7,2.7Zm-4.63,1.36,0,0-.89,3.49-2-2.54Zm-3.45.79-.92.31-1.3-3.09Zm-3-3.5a.33.33,0,0,0,.13,0l1.66,4-5,1.67-.33-.2Zm-3.17,5.94,5,3-5.82-2.67Zm-1.07,0a.38.38,0,0,0-.15,0h-.11L403.86,589l3.11,1.83Zm.49-.15.08-.12.1.06Zm3.35-5.73-3.38,5.18L402.83,588Zm-7.93,2.92,3.58,3.14v0l-3.91.08Zm-.7,3.6-.09.89-4-.81Zm-.92,7.53-4.32-7.36,5.12,1-.67,6.25A.57.57,0,0,0,401,599.44Zm.52-.13h-.07l.66-6.12,2.88.58Zm3.65-5.83-3-.62.1-1,4-.07Zm.36.07,1-1.61a.39.39,0,0,0,.21-.08l7.62,3.48Zm2.64-2.39,4.71-1.58,2.45,5.81Zm7.45,4.1-2.44-5.78,1-.34,2.27,2.84Zm.33,0,.75-3,1,1.22Zm.86-3.35.85-3.35.74,4.24-.49.49Zm1.31,1.64.35-.35.18,1Zm-.26-5.62,3.6-1.37a.63.63,0,0,0,.24.16l-1.59,4.38-1.44,1.43Zm1.11,6.29-.23-1.29,1.1-1.1Zm.26.21,1.15-3.14,3.07-3.08.38,3.25Zm4.54-6.22,2.36,1.51v0a.34.34,0,0,0,0,.2l-2.05,1.32Zm.77,6.57h0l-.36-3.13,2.13-1.38Zm.31.08,1.87-4.77,1.92,1.33Zm.19.25,3.87-3.5,2.65,1.84Zm6.8-1.89-2.67-1.85,3.48-3.17Z" transform="translate(-389.27 -583.25)"/></g><g class="cls-22"><path class="cls-23" d="M432.75,593.44H432l.8-5.05v-.09l-.83,5.13-3-2.11,3.83-3.48h0v-.38h0a.2.2,0,0,0-.22.19.19.19,0,0,0,.09.18l-5.93,1.92h0a.21.21,0,0,0-.19-.22.24.24,0,0,0-.14,0l-3.88-2.92-.26-.27a.44.44,0,0,0,.08-.2.42.42,0,1,0-.79.12l-3.79,1.44h0a.21.21,0,1,0-.41,0,.2.2,0,0,0,.06.15l-3.12,1.06L411.09,585v0a.21.21,0,0,0-.18-.17.21.21,0,0,0-.22.19.23.23,0,0,0,0,.14l-8.22,2.84h0a.2.2,0,1,0-.22.18.19.19,0,0,0,.18-.08l-.39,3.65-5.7.11h0a.2.2,0,1,0-.22.18.19.19,0,0,0,.2-.11l4.59,7.81a.66.66,0,0,0-.06.2.53.53,0,0,0,.09.33h.81a.5.5,0,0,0,.09-.25.49.49,0,0,0-.27-.48l3.65-5.84,10.05,2a.19.19,0,0,0,.18.19.2.2,0,0,0,.22-.18h0l2.17-2.17.81,1a.21.21,0,0,0-.13.17.2.2,0,0,0,.4,0l5-3.24.38,3.33h0a.5.5,0,0,0-.54.45.49.49,0,0,0,.45.54.5.5,0,0,0,.54-.45v-.08l7.17-1.8h.81Zm-.17-5.62.09,0h.05l-3.84,3.48-2.24-1.55Zm-6.27,1.76h0l-2.78-1.79-.95-1Zm-4.13-3.2.19.2-.22-.16Zm-.28.16a.37.37,0,0,0,.23-.1l.36.27,1,1.11h0l-3.3,3.29Zm-4.23,1.24,3.82-1.46a.45.45,0,0,0,.33.23h.07l-1.68,4.59-1.67,1.67-.88-5Zm-.29.09.09,0a.21.21,0,0,0,.17-.08l-1,4.06-2.36-3Zm-3.19,1-1.26.43-1.8-4.26Zm-3.33-3.72a.21.21,0,0,0,.22-.17h0l0,0,1.81,4.28-5.19,1.75-.53-.32,3.64-5.59Zm-4.2,6.26a.19.19,0,0,0-.14-.09.28.28,0,0,0-.13,0L402.5,588l4.69,2.77-.42.64Zm.08,0-.05.07v0Zm.46-.68.53.31-.94.31ZM402.5,588l8.24-2.83.09,0-3.64,5.59-4.7-2.78Zm0,.08,0,0,3.88,3.41a.17.17,0,0,0-.07.14v.06l-4.23.09Zm-.4,3.7-.13,1.23-5.53-1.12ZM401,599.68l-4.6-7.82v0h0l5.55,1.13-.69,6.48A.48.48,0,0,0,401,599.68Zm.61-.21a.33.33,0,0,0-.14,0,.32.32,0,0,0-.17,0l.69-6.48,3.27.66Zm3.66-5.84-3.28-.67.13-1.23,4.25-.09.08.09Zm10.07,2v0l-10.05-2,1.19-1.9,0,0a.22.22,0,0,0,.2-.11l8.63,4Zm0-.08-8.63-4v-.07l.06-.1,1-.34,7.56,4.46Zm0,0-7.56-4.46,5.17-1.73,2.57,6.1A.19.19,0,0,0,415.33,595.56Zm.19-.09-2.58-6.11,1.28-.42,2.38,3-.94,3.64A.19.19,0,0,0,415.52,595.47Zm.17.18,0-.08.93-3.65,1.25,1.57Zm.92-3.76,1-4.07v0l.88,5-.67.67Zm2.16,2.62h-.07l-.82-1,.66-.66.3,1.71Zm.08,0-.3-1.71,1.65-1.66-1.26,3.47A.18.18,0,0,0,418.85,594.54Zm.1.18v-.08l1.27-3.49,3.31-3.32h0l.42,3.64Zm4.6-6.87,2.74,1.75,0,.1a.21.21,0,0,0,.14.2L424,591.48Zm.81,7-.39-3.33,2.46-1.59h0a.17.17,0,0,0,.12,0l-2,5.07A.49.49,0,0,0,424.36,594.84Zm.24.11,2-5.1,0,0,2.23,1.54-4.14,3.76A.61.61,0,0,0,424.6,595Zm.17.33a.55.55,0,0,0,0-.17l4.14-3.75,3,2.11Z" transform="translate(-389.27 -583.25)"/></g></g><path class="cls-23" d="M406.54,593.22a.19.19,0,0,0,.21.17.18.18,0,0,0,.15-.1l3.4,0h0l2.78.7v0a.2.2,0,0,0,.21.17.19.19,0,0,0,.18-.21.2.2,0,0,0-.21-.17h0l.15-1.29,1.94,1.26a.08.08,0,0,0,.08.06.07.07,0,0,0,.07-.08.08.08,0,0,0-.05-.07l.32-.39.84.84h0a.08.08,0,1,0,.15,0l3.89-.78,1.41,2.26a.17.17,0,0,0-.1.18.19.19,0,0,0,.2.18.19.19,0,0,0,.18-.21.24.24,0,0,0,0-.08l1.77-3a.1.1,0,0,0,.08.05.1.1,0,0,0,.07-.09.08.08,0,0,0-.08-.07.08.08,0,0,0-.08.08h0l-2.2,0-.15-1.41a.08.08,0,0,0,.14-.05.07.07,0,0,0-.09-.07.08.08,0,0,0-.07.08h0l-3.18-1.1a.08.08,0,0,0,0,0,.07.07,0,0,0-.09-.07.06.06,0,0,0-.06.06h0l-1.21,1.52-1.21-.41a0,0,0,0,0,0-.06.08.08,0,0,0-.08-.07.08.08,0,0,0-.07.09h0l-1.47-.56a.08.08,0,0,0,0-.07.16.16,0,0,0-.31,0,.09.09,0,0,0,0,.07l-.1.11-1.51,1.13-.05,0a.07.07,0,0,0-.07.09h0l-2.29-.74a.11.11,0,0,0,0-.08A.08.08,0,0,0,410,591c-.05,0-.08,0-.07.09h0l-3,2a.2.2,0,0,0-.19-.11A.19.19,0,0,0,406.54,593.22Zm3.52-2.1,2.29.75-.86.6L410,591.13h.06Zm3,2.81-1.6-1.45.86-.6v0l.78,2Zm1.09-3.31.65,1.77-1.28-1.27h0l.39-.42.14-.11A.13.13,0,0,0,414.19,590.62Zm-1.69,1.22v0l1.06-.67-.16,1.4-.94-.61A.07.07,0,0,0,412.5,591.84Zm1.42-1.13-.36.39-1.08.7h0Zm.16-.15h0l-.08.06Zm1.74.54h0l-.34,1.93-.65-.64-.65-1.78h0a.15.15,0,0,0,.13-.09Zm-.49,2.65-.48-1.34.63.64-.11.66Zm.5-2.63.41,1.57-.49.61-.26-.26.34-1.93Zm1.32.42-.91,1.15-.4-1.57a.07.07,0,0,0,.06,0h0Zm3.07,1.05,1.64,0,.05.47-1.27.26-.46-.73Zm-.34-.34,1.81-1.07-1.5,1.32-.05,0-.06,0h0Zm.15.25-.36-.12.21-.12Zm0,0,0,0h0Zm0,0h0l-3.34,1.53h0l2.93-1.73.38.13,0,0Zm-3.41,1.5,1-2.36,2,.67-2.92,1.73A.08.08,0,0,0,416.66,594.07Zm-.06,0-.36-1.41.92-1.15.49.16-1,2.36A.09.09,0,0,0,416.6,594.11Zm1.75-4.06-.69,1.65-.49-.17Zm0,0h0a.08.08,0,0,0,.09.06h0l1.4,2.16-.2.12-2-.67.7-1.66Zm3.32,1.14h0l-1.82,1.07-1.41-2.16,0,0Zm.17,1.44-1.64,0v0a.08.08,0,0,0,0,0l1.5-1.32v0Zm2.19.06-2.14.43-.05-.47Zm-1.76,3a.2.2,0,0,0-.11-.09l-.27-2.5,2.15-.44h0Zm-1.65-2.34,1.27-.25.27,2.5h-.12Zm-3.9.79h0v0l3.34-1.52a.08.08,0,0,0,.07,0h0l.46.74Zm-1-.84.49-.61.36,1.41v0Zm-.33.4h-.05l.12-.66.25.26Zm-2-1.18.16-1.41h0l1.28,1.29.49,1.34v0Zm-.15,1.3a.19.19,0,0,0-.09,0l-.77-2,.05,0h0l1,.61Zm-2.92-.53,1.17-.82,1.61,1.46a.14.14,0,0,0,0,.06Zm-.36-2.2,0,0,1.48,1.34-1.17.82Zm-3,2.17a.13.13,0,0,0,0-.09.06.06,0,0,0,0,0l3-2.06h0l.35,2.2Z" transform="translate(-389.27 -583.25)"/></g><path class="cls-25" d="M407.84,591.83a.45.45,0,0,1,.63,0,.43.43,0,0,1,0,.61.45.45,0,0,1-.63,0A.43.43,0,0,1,407.84,591.83Z" transform="translate(-389.27 -583.25)"/><path class="cls-26" d="M405.05,591.7a.22.22,0,0,1,.29,0,.19.19,0,0,1,0,.28.21.21,0,0,1-.29,0A.21.21,0,0,1,405.05,591.7Z" transform="translate(-389.27 -583.25)"/><path class="cls-27" d="M410.9,593.66a.2.2,0,0,1,.28,0,.19.19,0,0,1,0,.28.22.22,0,0,1-.29,0A.21.21,0,0,1,410.9,593.66Z" transform="translate(-389.27 -583.25)"/><path class="cls-28" d="M406.27,593.25a.22.22,0,0,1,.29,0,.19.19,0,0,1,0,.28.21.21,0,0,1-.29,0A.19.19,0,0,1,406.27,593.25Z" transform="translate(-389.27 -583.25)"/><path class="cls-29" d="M408.34,592.79a.2.2,0,0,1,.29,0,.19.19,0,0,1,0,.28.21.21,0,0,1-.29,0A.19.19,0,0,1,408.34,592.79Z" transform="translate(-389.27 -583.25)"/><path class="cls-30" d="M409.3,590.76a.21.21,0,0,1,.29,0,.21.21,0,0,1,0,.29.21.21,0,0,1-.29,0A.19.19,0,0,1,409.3,590.76Z" transform="translate(-389.27 -583.25)"/><path class="cls-31" d="M406.4,590.15a.2.2,0,0,1,.29,0,.19.19,0,0,1,0,.28.21.21,0,0,1-.29,0A.19.19,0,0,1,406.4,590.15Z" transform="translate(-389.27 -583.25)"/><path class="cls-32" d="M402.25,592.6a.86.86,0,0,1,1.2,0,.82.82,0,0,1-.05,1.17.86.86,0,0,1-1.2-.05A.81.81,0,0,1,402.25,592.6Z" transform="translate(-389.27 -583.25)"/><path class="cls-33" d="M400.67,593.07a.86.86,0,0,1,1.19.06.81.81,0,0,1-.05,1.17.86.86,0,0,1-1.2-.06A.81.81,0,0,1,400.67,593.07Z" transform="translate(-389.27 -583.25)"/><path class="cls-34" d="M409.07,592.79a.45.45,0,0,1,.63,0,.42.42,0,0,1,0,.61.45.45,0,0,1-.63,0A.43.43,0,0,1,409.07,592.79Z" transform="translate(-389.27 -583.25)"/><path class="cls-35" d="M410.73,592.25a.45.45,0,0,1,.63,0,.44.44,0,0,1,0,.62.45.45,0,0,1-.63,0A.42.42,0,0,1,410.73,592.25Z" transform="translate(-389.27 -583.25)"/><path class="cls-36" d="M412.88,593.6a.65.65,0,0,1,.91,0,.61.61,0,0,1,0,.88.65.65,0,0,1-.91,0A.61.61,0,0,1,412.88,593.6Z" transform="translate(-389.27 -583.25)"/><path class="cls-37" d="M414.38,591.66a.66.66,0,0,1,.91,0,.62.62,0,0,1,0,.89.67.67,0,0,1-.91,0A.62.62,0,0,1,414.38,591.66Z" transform="translate(-389.27 -583.25)"/><path class="cls-38" d="M403.73,593.28a.45.45,0,0,1,.63,0,.44.44,0,0,1,0,.62.46.46,0,0,1-.63,0A.43.43,0,0,1,403.73,593.28Z" transform="translate(-389.27 -583.25)"/><g class="cls-18"><path class="cls-19" d="M400,597.06a.62.62,0,0,0,.61.5h.06a.6.6,0,0,0,.43-.22.65.65,0,0,0,.14-.46.63.63,0,0,0-.46-.56l.27-2.35,4,2.6a.38.38,0,0,0,.33.21.4.4,0,0,0,.29-.14.42.42,0,0,0,.09-.27.44.44,0,0,0-.05-.15l.45-.56,1.69,1.69a.37.37,0,0,0,.35.25.41.41,0,0,0,.33-.19l8.44-1.72,2.82,4.52h.92l-.55-5.16,4.22-.86-3.53,6h.47l3.52-6,.09,0a.4.4,0,0,0,.29-.14.42.42,0,0,0,.09-.27.38.38,0,0,0-.38-.35.42.42,0,0,0-.32.19l-4.61-.09-.29-2.7a.38.38,0,0,0,.29-.39.38.38,0,0,0-.38-.35.4.4,0,0,0-.29.14h0L412.62,588h0a.38.38,0,0,0-.37-.35.39.39,0,0,0-.36.28l-2.6,3.26-2.39-.8v0a.37.37,0,0,0-.37-.34.38.38,0,0,0-.29.13h0L403.3,589v-.05a.55.55,0,0,0-.55-.51h-.05a.55.55,0,0,0-.51.6.5.5,0,0,0,0,.12l-.13.13-3.24,2.43h-.08a.4.4,0,0,0-.29.14l-4.73-1.53v0a.37.37,0,0,0-.66-.21.34.34,0,0,0-.09.19l-3.72,2.52v.51l3.8-2.58.7,4.41-4.5,0v.44l4.71,0Zm5.21-1.39-.56-1.55.71.71Zm.41,0,.09-.5.17.18Zm.83-.35.72-.91.56,2.18Zm2.08,1.47,2-4.78,3.87,1.3Zm6.4-3.31.53.18-3.7,1.69Zm-5.15,3.25,6-2.75.15,0,.8,1.29Zm5.92-3.7,2-1.18-1.64,1.43H416l-.11,0Zm7.21,1-2.77.56-.07-.62Zm-3.13,1,.54,5.07-2.87-4.6Zm-.12-1.12.07.71-2.52.51-.8-1.28Zm-.05-.44-3.17-.06,2.89-2.53Zm-.59-3-3.55,2.09-2.78-4.27Zm-6.91-2.28h0l3,4.57L415,593l-4.2-1.41Zm-.86,1-.92,2.17-.64-.22Zm-1.85,2.31.76.26-2,4.75-.67-2.61Zm-.43-.14-1.61,2-.72-2.8Zm-2.59-.14.66,2.56-.89,1.11-.35-.34Zm-3.28-2,3,1.16-.67,3.8-1.14-1.14L403,589.47A.45.45,0,0,0,403.13,589.37Zm-.78.24.17-.13h0l1.1,3-2.06-2.07Zm-.91,1.26,2.55,2.56.92,2.51-3.77-2.44Zm-6.92,4.36,2.14-1.48,3.11,2.82Zm4.62-3.17,1.89-1.21-.28,2.4-1.63-1.06A.51.51,0,0,0,399.14,592.06Zm1.56,1.66-.28,2.42-1.36-3.47Zm-2.18-1.26,1.49,3.78-3-2.73Zm-.37-.27-1.47,1-2.61-2.36Zm-4.63-1.29,2.81,2.55-2.15,1.5Z" transform="translate(-389.27 -583.25)"/><g class="cls-20"><path class="cls-21" d="M400.09,597a.56.56,0,0,0,.56.49h.05a.53.53,0,0,0,.38-.2.55.55,0,0,0,.13-.41.56.56,0,0,0-.47-.51l.29-2.52,4.12,2.67a.32.32,0,0,0,.29.19.32.32,0,0,0,.23-.11.29.29,0,0,0,.07-.23.27.27,0,0,0-.05-.15l.52-.66L408,597.3a.32.32,0,0,0,.29.23.37.37,0,0,0,.29-.19l8.52-1.73,2.88,4.6h.35l-2.92-4.67,2.5-.5.56,5.17h.27l-.56-5.23,4.43-.89-3.6,6.12h.32l3.57-6.08a.28.28,0,0,0,.13,0,.34.34,0,0,0,.23-.11.29.29,0,0,0,.07-.23.3.3,0,0,0-.3-.28.34.34,0,0,0-.29.19l-4.7-.09-.3-2.83a.31.31,0,0,0,0-.61.31.31,0,0,0-.24.11l0,0L412.56,588v-.05a.31.31,0,0,0-.61,0l-2.63,3.28-2.48-.83v-.07a.31.31,0,0,0-.54-.17l0,0-3-1.15v-.09a.48.48,0,0,0-.49-.45.51.51,0,0,0-.49.53.33.33,0,0,0,0,.14l-.16.17-3.28,2.46-.09,0a.33.33,0,0,0-.27.16l-4.83-1.56a.34.34,0,0,0,0-.1.31.31,0,0,0-.31-.28.28.28,0,0,0-.23.11.33.33,0,0,0-.08.19l-3.79,2.56v.35l3.86-2.62.73,4.6-4.59,0v.3l4.72,0Zm23.47-3-3.45.7-.08-.77Zm-29.19,1.24,2.3-1.6,3.35,3Zm10.9.67-.75-2.08,1,1Zm.28,0,.15-.89.31.31Zm.84-.6.85-1.06.65,2.55Zm2,1.63,2.13-5,4.07,1.36Zm7.26-3.3-5,2.31,4.32-2.55Zm-.38-.44.09-.06.07.11Zm.34-.2,2.69-1.59-2.22,1.93H416a.33.33,0,0,0-.14,0Zm-6.38,3.9,6.59-3a.3.3,0,0,0,.18.06l.87,1.4Zm10.58-2.14-2.62.53-.9-1.43,3.43.07Zm-.41-3.94.29,2.8-3.38-.07v0Zm-.21-.25-3.73,2.2-2.92-4.49Zm-7.11-2.35.11,0,3,4.65-.29.17-4.3-1.44Zm-.58.65-1.13,2.68-.79-.27Zm-2.12,2.66.88.3-2.11,5-.73-2.84Zm-2.78-.93,2.48.84-1.75,2.2-.77-3Zm-.22.41.74,2.89-1,1.2-.43-.42Zm-3.3-1.74,3.12,1.19-.7,4-1.24-1.25-1.38-3.79A.35.35,0,0,0,403.11,589.28Zm-.81.27.22-.16.09,0,1.22,3.32-2.34-2.33Zm1.76,3.83,1,2.72-4-2.58.33-2.81Zm-5-1.34v0l2.05-1.31-.31,2.64L399,592.21A.33.33,0,0,0,399.08,592Zm1.69,1.64-.31,2.71h0l-1.52-3.91Zm-2.2-1.34,1.61,4.13-3.28-3Zm-.26-.18-1.63,1.13-2.89-2.62Zm-4.88-1.45,3,2.74-2.31,1.6Z" transform="translate(-389.27 -583.25)"/></g><g class="cls-22"><path class="cls-23" d="M394,595.31l6.21,1.56v.07a.43.43,0,1,0,.39-.47h0l.33-2.88,4.35,2.8a.16.16,0,0,0,.18.14.17.17,0,0,0,.16-.19.18.18,0,0,0-.11-.14l.7-.89,1.88,1.89h0a.17.17,0,0,0,.19.16.18.18,0,0,0,.16-.17l8.69-1.76,3,4.77h0l-3-4.78,2.83-.57.57,5.35h0l-.57-5.35,4.8-1h0l-3.71,6.32h0l3.71-6.31a.16.16,0,0,0,.17.1.17.17,0,0,0,.16-.19.19.19,0,0,0-.19-.16.18.18,0,0,0-.16.19h0l-4.93-.1-.34-3.16a.16.16,0,0,0,.15.07.17.17,0,0,0,.16-.19.18.18,0,0,0-.19-.16.19.19,0,0,0-.16.19h0l-7.12-2.46a.19.19,0,0,0,0-.13.18.18,0,0,0-.18-.16.17.17,0,0,0-.16.15v0l-2.71,3.39-2.7-.91a.19.19,0,0,0,0-.13.18.18,0,0,0-.19-.16.17.17,0,0,0-.16.19h0l-3.28-1.24a.47.47,0,0,0,0-.17.36.36,0,0,0-.39-.32.36.36,0,0,0-.33.38.44.44,0,0,0,.07.17l-.22.24-3.37,2.52a.16.16,0,0,0-.12,0,.19.19,0,0,0-.16.19h0l-5.13-1.66a.18.18,0,0,0,.08-.16.19.19,0,0,0-.19-.16.18.18,0,0,0-.16.19v0L389.27,593v0l3.94-2.68,0,0,.78,4.92-4.74,0v0l4.75,0Zm6.21,1.55-6.18-1.57,2.63-1.83,3.59,3.26A.33.33,0,0,0,400.23,596.86Zm5-.48-4.33-2.81.36-3.15h0l2.86,2.88,1.11,3Zm0-.08-1.1-3,1.43,1.43-.26,1.48A.2.2,0,0,0,405.28,596.3Zm.2-.1h-.12l.26-1.47.57.57Zm2.6,1-1.87-1.87L407.3,594l.81,3.16Zm.16-.16,2.23-5.28,4.47,1.5-6.54,3.86A.18.18,0,0,0,408.24,597Zm.16.08,6.55-3.86.86.29.06.09v.06l-7.47,3.43Zm7.41-3.6-.36-.55,4.06-2.4-3.37,2.94a.2.2,0,0,0-.11,0,.17.17,0,0,0-.13.07Zm.08.06,0,0,0-.06Zm-.1-.07-.81-.27.46-.27Zm-7.36,3.71v-.07l7.47-3.41a.17.17,0,0,0,.17.09h0l1,1.64Zm16.35-3.32-4.79,1-.11-1.07Zm-4.79,1-2.84.58-1-1.64.07-.08,3.67.07Zm-.46-4.27.34,3.17-3.66-.07v-.06a.19.19,0,0,0-.07-.12l3.37-3Zm-7.16-2.52,7.14,2.46v0l-4.06,2.4-3.15-4.84Zm-.29-.1h0a.17.17,0,0,0,.19.15h0l3.14,4.84-.45.27-4.5-1.51,1.57-3.71ZM412,588l-1.55,3.69-1.1-.37Zm-2.67,3.35,1.11.37L408.24,597a.2.2,0,0,0-.13.08L407.3,594Zm-2.81-.89.07,0,2.72.91-2,2.56-.9-3.51A.2.2,0,0,0,406.55,590.48Zm-.15-.08.89,3.52-1.09,1.38-.58-.58.76-4.34Zm-3.62-1.1a.33.33,0,0,0,.28-.2l3.31,1.26v0l-.76,4.33-1.45-1.44-1.45-4Zm-.31-.15,0,0-.19.14Zm0,.06a.39.39,0,0,0,.2.08l1.45,4-2.85-2.85h0l.88-1Zm-.39.29-.82.87-2.41,1.55h0ZM398.94,592l0-.09,2.38-1.52-.37,3.15-2.1-1.36A.17.17,0,0,0,398.94,592Zm-.16.19h0l2.13,1.37-.34,2.89a.42.42,0,0,0-.19.09l-1.71-4.38A.17.17,0,0,0,398.78,592.22Zm-.14-.06,1.74,4.42a.35.35,0,0,0-.11.13l-3.58-3.25,1.92-1.34Zm-5.25-1.73.07,0,5.14,1.7-1.93,1.34-3.33-3Zm-.15-.06a.21.21,0,0,0,.1.06l3.32,3L394,595.26Z" transform="translate(-389.27 -583.25)"/></g></g><g class="cls-24"><path class="cls-19" d="M399.73,598.7a.45.45,0,0,1-.3-.16.46.46,0,0,1-.1-.32.29.29,0,0,1,0-.09l-2.64-4.5h-.07a.28.28,0,0,1-.2-.1.31.31,0,0,1-.06-.19.27.27,0,0,1,.26-.24.32.32,0,0,1,.23.13l3.19-.06.2-1.87a.27.27,0,0,1-.2-.28.26.26,0,0,1,.26-.23.25.25,0,0,1,.2.09h0l4.68-1.62h0a.27.27,0,0,1,.26-.24.26.26,0,0,1,.25.19l1.8,2.26,1.66-.56v0a.25.25,0,0,1,.26-.23.27.27,0,0,1,.2.09h0l2-.77v0a.37.37,0,0,1,.38-.35h0a.39.39,0,0,1,.35.42.24.24,0,0,1,0,.08l.09.09,2.25,1.69h.05a.31.31,0,0,1,.21.11l3.27-1.07v0a.27.27,0,0,1,.47-.15.21.21,0,0,1,.05.13l4.53,3.06a.43.43,0,0,1,.31-.12h0a.43.43,0,0,1,.4.47.43.43,0,0,1-.43.4h0a.45.45,0,0,1-.3-.16l-5.18,0-4.2,1.05a.44.44,0,0,1-.42.35h0a.47.47,0,0,1-.3-.16.43.43,0,0,1-.1-.31.45.45,0,0,1,.33-.39l-.19-1.63-2.79,1.8a.25.25,0,0,1-.23.15.26.26,0,0,1-.2-.1.22.22,0,0,1-.06-.19.19.19,0,0,1,0-.1l-.31-.39-1.18,1.18a.25.25,0,0,1-.24.17.27.27,0,0,1-.22-.14l-5.86-1.18L400.09,598a.45.45,0,0,1,.11.34.43.43,0,0,1-.43.4Zm-.19-.81h0l.39-3.68-2.93-.6Zm.31-.12,2-3.19-1.62-.33Zm8.18-2.36-1.4-3.31-2.69.9Zm-.87,0L403,593.46l-.1,0-.56.89Zm1.13-.07.46-1.81-1.32-1.66-.53.18Zm.3,0,.88-.89-.5-.63Zm5.54,0,3.63-.92-1.48-1ZM414,595l2.08-1.89L415,592.4Zm-.28-.07.94-2.4-1.14.73Zm-3.12-.13,2.62-1.7L413,591.3l-1.77,1.78Zm-.52-.18-.06-.35-.12.12Zm.29,0,.39-1.08-.49.5Zm-4.54-.21-2.2-1.3-.37.12Zm-3.78-.09.55-.89-2.25,0-.05.49Zm16.27-.1,4.94,0h0l-4.45-3Zm-8.6-.05.24-.24-.4-2.31-.46,1.78Zm8.32,0,.46-2.81-1.95,1.77Zm-18-.21,0-.43-2,0Zm10.18-.22.8-.79.93-2.58-.09-.07-2.1.8Zm-9.82-.52,2.2,0-2-1.75Zm8.5,0,.5-1.94-1.61.54Zm-6-.15.07,0,.12-.19-1.39-.82,1.14,1h.06Zm10.57,0,1.14-.73a.29.29,0,0,1,0-.09l-1.31-.84Zm2.83,0,1.81-1.65-2.83.94Zm-12.67-.13,2.91-1-1-2.28h0l-2.06,3.18Zm-.39-.23,1.93-3-4.39,1.51Zm8.22-.14,1.44-1.43-.53-.57-.12-.09h0Zm-4.65-.7.45-.15-1.08-1.36Z" transform="translate(-389.27 -583.25)"/><g class="cls-20"><path class="cls-21" d="M399.73,598.64a.41.41,0,0,1-.27-.13.5.5,0,0,1-.09-.29l0-.11-2.68-4.55-.08,0a.2.2,0,0,1-.17-.08.27.27,0,0,1-.05-.15.23.23,0,0,1,.22-.2.26.26,0,0,1,.2.13l3.26-.06.21-2a.22.22,0,0,1-.21-.23.23.23,0,0,1,.22-.2.24.24,0,0,1,.16.08s0,0,0,0l4.76-1.64a0,0,0,0,1,0,0,.21.21,0,0,1,.21-.19.22.22,0,0,1,.21.18l1.82,2.27,1.72-.57v-.05a.22.22,0,0,1,.21-.2.27.27,0,0,1,.17.08l0,0,2.1-.8V590a.33.33,0,0,1,.34-.31.35.35,0,0,1,.34.37.32.32,0,0,1,0,.09l.11.12,2.28,1.7h.06a.27.27,0,0,1,.19.11l3.34-1.08v-.07a.21.21,0,0,1,.21-.19.22.22,0,0,1,.17.07.29.29,0,0,1,0,.13l4.58,3.09a.4.4,0,0,1,.29-.14h0a.35.35,0,0,1,.26.13.38.38,0,0,1,.09.29.4.4,0,0,1-.39.36h0a.37.37,0,0,1-.28-.16l-5.21,0-4.23,1.07a.39.39,0,0,1-.38.34h0a.4.4,0,0,1-.35-.43.38.38,0,0,1,.32-.35l-.2-1.75-2.86,1.85a.21.21,0,0,1-.19.13.22.22,0,0,1-.17-.07.24.24,0,0,1,0-.16.36.36,0,0,1,0-.11l-.36-.46-1.22,1.22a.21.21,0,0,1-.2.16.25.25,0,0,1-.2-.14l-5.9-1.19L400,598a.37.37,0,0,1,.13.33.39.39,0,0,1-.39.36Zm-.21-.69.08-.05.4-3.75-3.07-.62Zm.31-.08,2.09-3.33-1.74-.35-.39,3.67Zm8.29-2.35L406.65,592l-2.82,1Zm-.58,0L403,593.4a.26.26,0,0,1-.12.05l-.61,1Zm.76,0,.5-2-1.36-1.7-.61.2Zm.2,0,1-1-.58-.74Zm5.45-.08,3.92-1-1.6-1.11Zm-.11-.16,2.27-2.06-1.15-.8Zm-.19,0,1.06-2.71-1.28.83.22,1.88Zm-3.19-.2,2.76-1.79-.22-1.95L411.15,593Zm-3.87-.1-3-1.77-.5.17Zm3.72,0,.52-1.44-.66.66Zm-.19,0-.11-.61-.21.21Zm-8.1-.43.63-1-2.38,0-.07.57Zm16.21-.1,5,0v-.07l-4.54-3.08Zm-8.56,0,.3-.29-.45-2.55-.51,2Zm8.36,0,.49-3-2.09,1.9ZM400,594l.05-.53-2.44.05Zm10.11-.17.86-.86,1-2.63a.3.3,0,0,1-.14-.1l-2.17.83Zm-1.27-.56.54-2.1h0l-1.73.58Zm-8.57,0,2.35-.05v0l-2.15-1.88Zm2.57-.2.09,0,.17-.27-1.86-1.1,1.53,1.34h.07Zm10.54,0,1.23-.79a.17.17,0,0,1,0-.12h0l-1.42-.91Zm2.87,0,2-1.82-3.13,1Zm-13,0,.11,0-.06,0Zm.35-.12,3-1-1-2.37-.08,0-2.1,3.23Zm-.37-.21,2-3.12-4.61,1.59Zm8.09,0,1.62-1.62-.56-.6-.15-.11-.07,0Zm-4.56-.83.55-.19L406,589.92Z" transform="translate(-389.27 -583.25)"/></g><g class="cls-22"><path class="cls-23" d="M423.68,593.91a.31.31,0,0,0-.3.18l-4.7-3.18v0a.11.11,0,0,0-.11-.13.12.12,0,0,0-.13.11.14.14,0,0,0,.06.11l-3.56,1.15h0a.12.12,0,0,0-.11-.13.11.11,0,0,0-.08,0l-2.34-1.75-.15-.17a.21.21,0,0,0,0-.11.23.23,0,0,0-.22-.27.25.25,0,0,0-.27.22.5.5,0,0,0,0,.12l-2.28.86h0a.14.14,0,0,0-.12-.14.14.14,0,0,0-.13.12.11.11,0,0,0,0,.09l-1.88.63-1.87-2.35v0a.11.11,0,0,0-.11-.1.11.11,0,0,0-.13.11.19.19,0,0,0,0,.08l-4.93,1.71h0a.12.12,0,0,0-.11-.14.12.12,0,0,0-.13.11.12.12,0,0,0,.11.14.12.12,0,0,0,.1,0l-.23,2.19-3.42.06h0a.13.13,0,0,0-.11-.13.12.12,0,0,0-.13.11.11.11,0,0,0,.11.13.11.11,0,0,0,.12-.07l2.75,4.7a.2.2,0,0,0,0,.11.3.3,0,0,0,.27.33.3.3,0,0,0,.32-.27.3.3,0,0,0-.16-.29l2.19-3.51,6,1.22a.13.13,0,0,0,.11.12.12.12,0,0,0,.13-.11h0l1.3-1.31.49.61a.16.16,0,0,0-.08.1.14.14,0,0,0,.12.14.12.12,0,0,0,.12-.1l3-1.95.24,2h0a.29.29,0,0,0-.32.27.29.29,0,0,0,.27.32.3.3,0,0,0,.32-.27v0l4.3-1.08h0l5.28,0a.32.32,0,0,0,.24.16.31.31,0,0,0,.32-.27A.31.31,0,0,0,423.68,593.91ZM418.55,591h0l-2.3,2.09-1.35-.93L418.5,591Zm-4.85,4.26,1.21-3.07,0,0,1.33.93-2.48,2.25A.24.24,0,0,0,413.7,595.26Zm-1.48-5.11.22.16.61.66h0l-2,2,1-2.75A.3.3,0,0,0,412.22,590.15Zm2.56,2.08-1.45.94-.26-2.18,1.65,1,0,.06A.12.12,0,0,0,414.78,592.23Zm0-.2h0L413.06,591l-.57-.61Zm-2.37-1.8-.13-.1,0,0Zm-.52-.16a.25.25,0,0,0,.2.14h0l-1,2.75-1,1-.53-3h0ZM410.25,595l-.18-1,1-1-.75,2.09S410.28,595,410.25,595Zm-.71-4,.53,3-.4.4-.76-1,.62-2.44Zm-.17,0,.05,0a.14.14,0,0,0,.11,0l-.62,2.44-1.42-1.78Zm-6.59,2.31-.71,1.14-2-.4.08-.74,2.55-.05Zm.22-.2-.06,0a.11.11,0,0,0-.09,0,.08.08,0,0,0-.08,0l-2.33-2,2.81,1.66Zm.26-.38.32.19-.56.19Zm-.31.42h0l0,0Zm0,.05,0-.06.6-.2,4.54,2.67h0L403,593.25v0Zm5.18,2.41-4.54-2.68,3.1-1,1.55,3.67A.11.11,0,0,0,408.14,595.62Zm.11,0-1.54-3.67.76-.25,1.43,1.79-.56,2.18A.11.11,0,0,0,408.25,595.57Zm-.79-3.94-.76.25-1.08-2.56Zm-1.85-2.32,1.08,2.57-3.11,1-.32-.19,2.18-3.36h0a.13.13,0,0,0,.13-.1h0Zm-.22,0,.05,0-2.19,3.36-2.82-1.67h0Zm-5,1.75v0l2.33,2a.13.13,0,0,0,0,.09v0l-2.54,0Zm-.24,2.22-.08.74-3.32-.67Zm-3.43.08h0l3.34.68-.42,3.89a.31.31,0,0,0-.17.13Zm3.12,4.57-.08,0-.1,0,.41-3.89,2,.39Zm2.22-3.5.71-1.14h0a.13.13,0,0,0,.12-.07l5.18,2.37v0h0Zm6.27,1.21,0,0,.56-2.19.76.94Zm1.31-1.3.4-.4.18,1,0,0h0Zm.65.74v0l.76-2.09,2-2h0l.25,2.18Zm3-1.93,1.48-1h0a.06.06,0,0,0,.07,0l-1.18,3a.35.35,0,0,0-.14-.06Zm.48,2.27,0-.11,2.48-2.25,1.83,1.27Zm4.29-1.11-1.82-1.27,2.3-2.09a.1.1,0,0,0,.07,0Zm0,0,.54-3.41v0l4.71,3.19a.24.24,0,0,0,0,.08.2.2,0,0,0,0,.13Z" transform="translate(-389.27 -583.25)"/></g></g><path class="cls-23" d="M402.86,594.22a.12.12,0,0,0,.13.1.11.11,0,0,0,.09-.06h2l1.67.42v0a.11.11,0,0,0,.12.1.12.12,0,0,0,.11-.12.13.13,0,0,0-.13-.11h0l.09-.77,1.16.75a.05.05,0,0,0,.05,0s0,0,0-.05,0,0,0,0l.19-.24.51.51h0s0,.05.05,0a0,0,0,0,0,0,0l2.33-.47.85,1.35a.11.11,0,0,0-.06.11.11.11,0,0,0,.12.11.12.12,0,0,0,.11-.13l0,0,1.07-1.82a0,0,0,0,0,.09,0s0,0-.05,0a0,0,0,0,0-.05,0h0l-1.32,0L412,593s0,0,0,0,.05,0,0,0a0,0,0,1,0-.09,0h0l-1.91-.66a0,0,0,0,0,0,0s0,0-.05,0a0,0,0,0,0,0,0h0l-.73.91-.73-.24a.05.05,0,0,0,0,0,.07.07,0,0,0,0,0,0,0,0,0,0-.05,0h0l-.88-.33a.09.09,0,0,0,0-.05.08.08,0,0,0-.1-.08.09.09,0,0,0-.09.1s0,0,0,0l-.06.06-.9.68h0a0,0,0,0,0,0,0h0L405,593s0,0,0,0a.07.07,0,0,0-.05,0,0,0,0,0,0-.05,0h0l-1.83,1.23a.12.12,0,0,0-.11-.07A.13.13,0,0,0,402.86,594.22ZM405,593l1.38.46-.52.36-.89-.81h0Zm1.83,1.7-1-.88.52-.36h0l.47,1.19Zm.66-2,.38,1.06-.76-.76h0l.24-.25.08-.07Zm-1,.73v0l.64-.41-.1.84-.56-.36S406.45,593.41,406.44,593.39Zm.86-.68-.22.24-.65.41h0Zm.09-.09h0l0,0Zm1.05.32h0l-.21,1.16-.38-.39-.39-1.06h0a.12.12,0,0,0,.08-.06Zm-.3,1.6-.29-.81.38.39-.07.39Zm.3-1.59.24.95-.29.37-.15-.16.2-1.16Zm.79.26-.54.69-.25-.95a0,0,0,0,0,0,0h0Zm1.84.63,1,0,0,.29-.76.15-.28-.44Zm-.2-.2L412,593l-.9.79h0l0,0h0Zm.09.14-.21-.07.12-.07Zm0,0h0Zm0,0h0l-2,.92h0l1.76-1,.23.07,0,0Zm-2.05.91.6-1.42,1.2.41-1.76,1Zm0,0-.21-.84.55-.7.3.1-.6,1.42Zm1.06-2.44-.42,1-.29-.09Zm0,0h0a0,0,0,0,0,0,0h0l.85,1.3-.12.07-1.21-.41.42-1Zm2,.68h0l-1.09.65-.84-1.3h0Zm.1.87-1,0h0a.05.05,0,0,0,0,0l.9-.79h0Zm1.32,0-1.29.26,0-.29Zm-1.06,1.82a.11.11,0,0,0-.07-.06l-.16-1.5,1.29-.26h0Zm-1-1.41.76-.15.16,1.5h-.07Zm-2.34.48h0l2-.92a.05.05,0,0,0,.05,0h0l.27.44Zm-.59-.51.29-.36.21.84v0Zm-.2.24h0l.07-.39.16.15ZM407,593.8l.09-.84h0l.77.77.29.81v0Zm-.1.78-.05,0-.46-1.18h0l.57.37Zm-1.75-.31.71-.5,1,.88s0,0,0,0Zm-.22-1.33,0,0,.89.81-.7.49Zm-1.82,1.31s0,0,0,0v0l1.82-1.24h0l.21,1.32Z" transform="translate(-389.27 -583.25)"/></g></g></svg>