<?xml version="1.0" encoding="utf-8"?>
<!-- Generator: Adobe Illustrator 23.0.1, SVG Export Plug-In . SVG Version: 6.00 Build 0)  -->
<svg version="1.1" id="Layer_1" xmlns="http://www.w3.org/2000/svg" xmlns:xlink="http://www.w3.org/1999/xlink" x="0px" y="0px"
	 viewBox="0 0 100 125" style="enable-background:new 0 0 100 125;" xml:space="preserve">
<title>Icone_Varie_04</title>
<g>
	<path d="M92.7,47.7c0-0.2-0.1-0.4-0.2-0.6c0,0,0,0,0-0.1L84,30.4v-6.7h2.3c0.9,0,1.6-0.7,1.6-1.6c0-0.9-0.7-1.6-1.6-1.6H58.5
		C58,17.5,56,15.1,53.3,14l2.2-7c0.2-0.8-0.2-1.7-1-1.9C54.3,5.1,54.1,5,54,5H46c-0.8,0-1.5,0.7-1.5,1.5c0,0.2,0,0.3,0.1,0.5l2.2,7
		c-2.7,1.1-4.7,3.5-5.3,6.4H13.7c-0.9,0-1.6,0.7-1.6,1.6c0,0.9,0.7,1.6,1.6,1.6H16v6.7L7.4,47c0,0,0,0,0,0.1
		c-0.1,0.2-0.1,0.4-0.2,0.6c0,0,0,0,0,0.1v1.7c0,5.7,4.7,10.4,10.4,10.4c5.7,0,10.4-4.7,10.4-10.4v-1.7c0,0,0,0,0-0.1
		c0-0.2-0.1-0.4-0.2-0.6c0,0,0,0,0-0.1l-8.6-16.6v-6.7h22.2c0.5,2.4,1.9,4.4,3.9,5.7v50.4c-1.4,0.7-2.7,1.7-3.6,2.9L39.9,85H23.7
		c-0.9,0-1.6,0.7-1.6,1.6c0,0.9,0.7,1.6,1.6,1.6c0,0,0,0,0,0h54c0.9,0,1.6-0.7,1.6-1.6c0-0.9-0.7-1.6-1.6-1.6c0,0,0,0,0,0H60.1
		l-1.9-2.3c-1-1.2-2.2-2.2-3.6-2.9V29.4c2.1-1.3,3.5-3.4,3.9-5.7h22.2v6.7L72.1,47c0,0,0,0,0,0.1c-0.1,0.2-0.1,0.4-0.2,0.6
		c0,0,0,0,0,0.1v1.7c0,5.7,4.6,10.4,10.4,10.4c5.7,0,10.4-4.6,10.4-10.4c0,0,0,0,0,0L92.7,47.7C92.8,47.7,92.7,47.7,92.7,47.7z
		 M24.8,49.4c0,3.9-3.2,7.1-7.1,7.1s-7.1-3.2-7.1-7.1l0,0v0L24.8,49.4L24.8,49.4z M23.7,46.1H11.6l6.1-11.7L23.7,46.1z M51.9,8.1
		L50.4,13h-0.8l-1.5-4.9L51.9,8.1z M55.7,84.8l0.2,0.2H44.1l0.2-0.2c0.9-1.1,2-1.9,3.3-2.3l0,0c0.4-0.1,0.7-0.2,1.1-0.3
		c0.1,0,0.1,0,0.2,0c0.7-0.1,1.5-0.1,2.2,0c0.1,0,0.1,0,0.2,0c0.4,0.1,0.7,0.2,1.1,0.3l0,0C53.7,82.9,54.8,83.7,55.7,84.8z
		 M48.7,78.9V30.7c0,0,0.1,0,0.1,0c0.8,0.1,1.6,0.1,2.3,0c0,0,0.1,0,0.1,0v48.2l0,0C50.4,78.7,49.6,78.7,48.7,78.9L48.7,78.9z
		 M55.4,22.1c0,2.4-1.6,4.6-4,5.2c-0.1,0-0.2,0.1-0.3,0.1c-0.7,0.2-1.5,0.2-2.3,0c-0.1,0-0.2-0.1-0.3-0.1c-2.9-0.8-4.5-3.8-3.7-6.7
		s3.8-4.5,6.7-3.7C53.8,17.5,55.4,19.6,55.4,22.1L55.4,22.1L55.4,22.1z M82.4,34.4l6.1,11.7H76.3L82.4,34.4z M89.5,49.4
		c0,3.9-3.2,7.1-7.1,7.1c-3.9,0-7.1-3.2-7.1-7.1v0L89.5,49.4L89.5,49.4z"/>
	<path d="M19.1,85h-0.8c-0.9,0-1.6,0.7-1.6,1.6c0,0.9,0.7,1.6,1.6,1.6h0.8c0.9,0,1.6-0.7,1.6-1.6C20.7,85.7,20,85,19.1,85
		C19.1,85,19.1,85,19.1,85z"/>
	<path d="M74,91.9h-29c-0.8,0-1.5,0.7-1.5,1.5c0,0.8,0.7,1.5,1.5,1.5h29c0.8,0,1.5-0.7,1.5-1.5C75.5,92.6,74.8,91.9,74,91.9z"/>
	<path d="M86.8,91.9h-5.1c-0.8,0-1.5,0.7-1.5,1.5s0.7,1.5,1.5,1.5c0,0,0,0,0,0h5.1c0.8,0,1.5-0.7,1.5-1.5S87.7,91.9,86.8,91.9
		C86.8,91.9,86.8,91.9,86.8,91.9z"/>
</g>
</svg>
