<?xml version="1.0" encoding="utf-8"?>
<!-- Generator: Adobe Illustrator 23.0.1, SVG Export Plug-In . SVG Version: 6.00 Build 0)  -->
<svg version="1.1" xmlns="http://www.w3.org/2000/svg" xmlns:xlink="http://www.w3.org/1999/xlink" x="0px" y="0px"
	 viewBox="0 0 100 125" style="enable-background:new 0 0 100 125;" xml:space="preserve">
<g id="Layer_2">
</g>
<g id="Layer_1">
	<g>
		<path d="M94.7,22.3c-2-0.5-4.1,0.7-4.6,2.7l-8.3,32.7H33.6L22.2,11.4c-0.4-1.7-1.9-2.9-3.7-2.9H6.3c-2.1,0-3.8,1.7-3.8,3.8
			s1.7,3.8,3.8,3.8h9.3L31,78.9c0.4,1.7,1.9,2.9,3.7,2.9h43.9c2.1,0,3.8-1.7,3.8-3.8s-1.7-3.8-3.8-3.8h-41l-2.2-8.9h49.2
			c1.7,0,3.2-1.2,3.7-2.8l9.1-35.6C97.9,24.9,96.7,22.8,94.7,22.3z"/>
		<circle cx="41.8" cy="91" r="6.1"/>
		<circle cx="73.3" cy="91" r="6.1"/>
		<path d="M68.6,26.9l-6.8,6.8v-27c0-2.1-1.7-3.8-3.8-3.8s-3.8,1.7-3.8,3.8v27l-6.8-6.8c-0.7-0.7-1.7-1.1-2.7-1.1s-1.9,0.4-2.7,1.1
			c-1.5,1.5-1.5,3.9,0,5.3l13.3,13.3c1.4,1.4,3.9,1.4,5.3,0l13.3-13.3c1.5-1.5,1.5-3.9,0-5.3C72.5,25.4,70.1,25.4,68.6,26.9z"/>
	</g>
</g>
</svg>
