<?xml version="1.0" encoding="utf-8"?>
<!-- Generator: Adobe Illustrator 23.0.1, SVG Export Plug-In . SVG Version: 6.00 Build 0)  -->
<svg version="1.1" id="Layer_1" xmlns="http://www.w3.org/2000/svg" xmlns:xlink="http://www.w3.org/1999/xlink" x="0px" y="0px"
	 viewBox="0 0 100 125" style="enable-background:new 0 0 100 125;" xml:space="preserve">
<title>Icone_Varie_04</title>
<g>
	<path d="M90.6,72.1H74.7V15.6C74.7,9.8,70,5,64.1,5H18.2C12.4,5,7.7,9.8,7.7,15.6V34c0,1,0.8,1.8,1.8,1.8c0,0,0,0,0,0h15.9v48.7
		C25.3,90.3,30,95,35.9,95h47.6v-0.2c5.1-0.9,8.8-5.3,8.8-10.4V73.8C92.3,72.9,91.6,72.1,90.6,72.1C90.6,72.1,90.6,72.1,90.6,72.1z
		 M25.3,26.2v6H11.2V15.6c0-3.9,3.2-7,7.1-7c3.9,0,7,3.2,7,7V26.2z M42.9,73.8v10.6c0,3.9-3.2,7-7.1,7c-3.9,0-7-3.2-7-7V15.6
		c0-2.6-1-5.1-2.7-7.1h38c3.9,0,7.1,3.2,7.1,7.1v56.5H44.7C43.7,72.1,42.9,72.9,42.9,73.8C42.9,73.8,42.9,73.8,42.9,73.8z
		 M88.8,84.4c0,3.9-3.2,7.1-7.1,7.1h-38c1.7-1.9,2.7-4.4,2.7-7.1v-8.8h42.3V84.4z"/>
	<path d="M36.7,36.8h27.4c0.7,0,1.3-0.6,1.3-1.3c0-0.7-0.6-1.3-1.3-1.3H36.7c-0.7,0-1.3,0.6-1.3,1.3C35.3,36.2,35.9,36.8,36.7,36.8
		C36.7,36.8,36.7,36.8,36.7,36.8z"/>
	<path d="M36.7,48.9h27.4c0.7,0,1.3-0.6,1.3-1.3c0-0.7-0.6-1.3-1.3-1.3H36.7c-0.7,0-1.3,0.6-1.3,1.3C35.3,48.3,35.9,48.9,36.7,48.9
		C36.7,48.9,36.7,48.9,36.7,48.9z"/>
	<path d="M65.4,59.7c0-0.7-0.6-1.3-1.3-1.3c0,0,0,0,0,0H36.7c-0.7,0-1.3,0.6-1.3,1.3c0,0.7,0.6,1.3,1.3,1.3c0,0,0,0,0,0h27.4
		C64.8,61.1,65.4,60.5,65.4,59.7C65.4,59.7,65.4,59.7,65.4,59.7z"/>
</g>
</svg>
