<?xml version="1.0" encoding="utf-8"?>
<!-- Generator: Adobe Illustrator 23.0.1, SVG Export Plug-In . SVG Version: 6.00 Build 0)  -->
<svg version="1.1" id="Layer_1" xmlns="http://www.w3.org/2000/svg" xmlns:xlink="http://www.w3.org/1999/xlink" x="0px" y="0px"
	 viewBox="0 0 100 125" style="enable-background:new 0 0 100 125;" xml:space="preserve">
<title>Calendar</title>
<path d="M75.2,37.7h7.8c1.1,0,2,0.9,2,2v2.4c0,1.1-0.9,2-2,2h-7.8c-1.1,0-2-0.9-2-2v-2.4C73.2,38.6,74.1,37.7,75.2,37.7z"/>
<path d="M58.5,37.7h7.8c1.1,0,2,0.9,2,2v2.4c0,1.1-0.9,2-2,2h-7.8c-1.1,0-2-0.9-2-2v-2.4C56.5,38.6,57.4,37.7,58.5,37.7z"/>
<path d="M75.2,50.8h7.8c1.1,0,2,0.9,2,2v2.4c0,1.1-0.9,2-2,2h-7.8c-1.1,0-2-0.9-2-2v-2.4C73.2,51.6,74.1,50.8,75.2,50.8z"/>
<path d="M58.5,50.8h7.8c1.1,0,2,0.9,2,2v2.4c0,1.1-0.9,2-2,2h-7.8c-1.1,0-2-0.9-2-2v-2.4C56.5,51.6,57.4,50.8,58.5,50.8z"/>
<path d="M75.2,63.8h7.8c1.1,0,2,0.9,2,2v2.4c0,1.1-0.9,2-2,2h-7.8c-1.1,0-2-0.9-2-2v-2.4C73.2,64.7,74.1,63.8,75.2,63.8z"/>
<path d="M58.5,63.8h7.8c1.1,0,2,0.9,2,2v2.4c0,1.1-0.9,2-2,2h-7.8c-1.1,0-2-0.9-2-2v-2.4C56.5,64.7,57.4,63.8,58.5,63.8z"/>
<path d="M41.7,63.8h7.8c1.1,0,2,0.9,2,2v2.4c0,1.1-0.9,2-2,2h-7.8c-1.1,0-2-0.9-2-2v-2.4C39.7,64.7,40.6,63.8,41.7,63.8z"/>
<path d="M24.9,63.8h7.8c1.1,0,2,0.9,2,2v2.4c0,1.1-0.9,2-2,2h-7.8c-1.1,0-2-0.9-2-2v-2.4C22.9,64.7,23.8,63.8,24.9,63.8z"/>
<path d="M58.5,76.9h7.8c1.1,0,2,0.9,2,2v2.4c0,1.1-0.9,2-2,2h-7.8c-1.1,0-2-0.9-2-2v-2.4C56.5,77.8,57.4,76.9,58.5,76.9z"/>
<path d="M41.7,76.9h7.8c1.1,0,2,0.9,2,2v2.4c0,1.1-0.9,2-2,2h-7.8c-1.1,0-2-0.9-2-2v-2.4C39.7,77.8,40.6,76.9,41.7,76.9z"/>
<path d="M24.9,76.9h7.8c1.1,0,2,0.9,2,2v2.4c0,1.1-0.9,2-2,2h-7.8c-1.1,0-2-0.9-2-2v-2.4C22.9,77.8,23.8,76.9,24.9,76.9z"/>
<path d="M80.9,21c-1.7,0-3-1.3-3-3V8c0-1.7,1.3-3,3-3s3,1.3,3,3v10C83.9,19.7,82.6,21,80.9,21z"/>
<path d="M54,21c-1.7,0-3-1.3-3-3V8c0-1.7,1.3-3,3-3s3,1.3,3,3v10C57,19.7,55.7,21,54,21z"/>
<path d="M49.5,50.8H46c-1.9,1.8-4,3.3-6.3,4.5c0.1,1.1,0.9,1.9,2,1.9h7.8c1.1,0,2-0.9,2-2v-2.4C51.5,51.6,50.6,50.8,49.5,50.8z"/>
<path d="M88.4,13v4.7c0,3.8-2.7,7.1-6.5,7.7C77.8,26,74,23.1,73.5,19c0-0.3-0.1-0.6-0.1-1v-5H61.5v5c0,4.1-3.4,7.5-7.5,7.5h-0.4
	c0.4,1.8,0.6,3.6,0.7,5.5H90v56.5c0,1.4-1.1,2.5-2.5,2.5H20.5c-1.4,0-2.5-1.1-2.5-2.5V56.6c-1.7-0.7-3.4-1.5-5-2.5v34.3
	c0,3.6,2.9,6.6,6.6,6.6h68.8c3.6,0,6.6-2.9,6.6-6.6V19.6C95,15.9,92.1,13,88.4,13z"/>
<path d="M12,15.1V7.5c0.1-1.3-0.9-2.4-2.2-2.5C8.5,5.1,7.4,6.2,7.5,7.5v16.3h16.3c1.3,0.1,2.4-0.9,2.5-2.2c0,0,0,0,0,0
	c-0.1-1.3-1.2-2.3-2.5-2.3h-9.6c6.8-7.3,18.2-7.7,25.4-0.9s7.7,18.2,0.9,25.4s-18.2,7.7-25.4,0.9c-3-2.8-5-6.6-5.6-10.7
	c-0.1-1.3-1.1-2.4-2.4-2.5c-1.2,0-2.2,1-2.2,2.2c0,0.1,0,0.2,0,0.3c1.4,12.4,12.5,21.3,24.9,19.9s21.3-12.5,19.9-24.9
	C48.4,16.7,37.3,7.8,24.9,9.1C20.1,9.7,15.6,11.8,12,15.1L12,15.1z"/>
<path d="M39.7,33.8H27.4c-1.2,0-2.3-1-2.3-2.3s1-2.3,2.3-2.3h12.3c1.2,0,2.3,1,2.3,2.3S41,33.8,39.7,33.8z"/>
</svg>
