<svg xmlns="http://www.w3.org/2000/svg" width="39.942" height="40.993" viewBox="0 0 39.942 40.993">
  <g id="settingsImg" transform="translate(-1856.4 107.993)">
    <path id="noun_Settings_1187814" d="M39.942,24.6V16.4l-5.392-.369a19.405,19.405,0,0,0-1.2-2.993l3.555-4.181L31.275,3.115,27.2,6.764a15.221,15.221,0,0,0-2.916-1.23L23.965,0H15.977l-.359,5.534A13,13,0,0,0,12.7,6.764L8.667,3.115,3.036,8.9,6.59,13.077a19.405,19.405,0,0,0-1.2,2.993L0,16.4v8.2l5.392.369a19.405,19.405,0,0,0,1.2,2.993L3.036,32.1l5.632,5.78L12.7,34.229a15.221,15.221,0,0,0,2.916,1.23l.359,5.534h7.988l.359-5.534a13,13,0,0,0,2.916-1.23l4.074,3.648,5.632-5.78-3.595-4.181a16.085,16.085,0,0,0,1.2-2.993ZM19.971,27.834a7.34,7.34,0,1,1,7.15-7.338,7.238,7.238,0,0,1-7.15,7.338Z" transform="translate(1856.4 -107.993)" fill="#00a8ff"/>
  </g>
</svg>
