<?xml version="1.0" encoding="utf-8"?>
<!-- Generator: Adobe Illustrator 23.0.1, SVG Export Plug-In . SVG Version: 6.00 Build 0)  -->
<svg version="1.1" id="Layer_1" xmlns="http://www.w3.org/2000/svg" xmlns:xlink="http://www.w3.org/1999/xlink" x="0px" y="0px"
	 viewBox="0 0 560 288" style="enable-background:new 0 0 560 288;" xml:space="preserve">
<style type="text/css">
	.st0{fill:#1ABC9C;}
</style>
<g>
	<g>
		<path class="st0" d="M230.5,75.3c-4.1-3.1-10-2.4-13.4,1.4l-94.9,101.7c-3.8,4.1-3.8,10.7,0.3,14.8c4.1,3.8,10.7,3.8,14.8-0.7l0,0
			L226,97.3l56.4,38.1c4.1,2.7,10,2.1,13.4-1.7l90-99v56.7c0,5.8,4.5,10.3,10.3,10.3c5.8,0,10.3-4.5,10.3-10.3V8.2l0,0V2.1l-0.7-0.7
			L405,0.7h-0.7l-1-0.7h-90.4c-5.8,0-10.3,4.5-10.3,10.3s4.5,10.3,10.3,10.3h60.1l-86.6,92.8L230.5,75.3z"/>
		<path class="st0" d="M424.6,267.4h-18.9V130.9c0-5.8-4.5-10.3-10.3-10.3s-10.3,4.5-10.3,10.3v136.4h-20.6V106.9
			c0-5.8-4.5-10.3-10.3-10.3s-10.3,4.5-10.3,10.3v160.5h-20.6V151.6c0-5.8-4.5-10.3-10.3-10.3c-5.8,0-10.3,4.5-10.3,10.3v115.8H282
			v-95.2c0-5.8-4.5-10.3-10.3-10.3c-5.8,0-10.3,4.5-10.3,10.3l0,0v95.2h-20.6v-133c0-5.8-4.5-10.3-10.3-10.3s-10.3,4.5-10.3,10.3
			v133h-20.6v-88.3c0-5.8-4.5-10.3-10.3-10.3c-5.8,0-10.3,4.5-10.3,10.3v88.3h-20.6v-50.5c0-5.8-4.5-10.3-10.3-10.3
			s-10.3,4.5-10.3,10.3v50.5h-18.9c-5.8,0-10.3,4.5-10.3,10.3s4.5,10.3,10.3,10.3h305.9c5.8,0,10.3-4.5,10.3-10.3
			S430.5,267.4,424.6,267.4z"/>
	</g>
</g>
</svg>
