<?xml version="1.0" encoding="utf-8"?>
<!-- Generator: Adobe Illustrator 23.0.1, SVG Export Plug-In . SVG Version: 6.00 Build 0)  -->
<svg version="1.1" id="Layer_1" xmlns="http://www.w3.org/2000/svg" xmlns:xlink="http://www.w3.org/1999/xlink" x="0px" y="0px"
	 viewBox="0 0 560 288" style="enable-background:new 0 0 560 288;" xml:space="preserve">
<style type="text/css">
	.st0{fill:#1ABC9C;}
	.st1{fill:none;}
	.st2{font-family:'AcmeGothic-Regular';}
	.st3{font-size:54px;}
</style>
<g>
	<g>
		<path class="st0" d="M88.3,95.3c-0.8-0.6-1.9-0.5-2.6,0.3L67.6,115c-0.7,0.8-0.7,2,0.1,2.8c0.8,0.7,2,0.7,2.8-0.1l0,0l16.9-18.2
			l10.8,7.3c0.8,0.5,1.9,0.4,2.6-0.3L118,87.5v10.8c0,1.1,0.9,2,2,2s2-0.9,2-2V82.5l0,0v-1.2l-0.1-0.1l-0.1-0.1h-0.1l-0.2-0.1h-17.3
			c-1.1,0-2,0.9-2,2c0,1.1,0.9,2,2,2h11.5L99,102.6L88.3,95.3z"/>
		<path class="st0" d="M125.4,132h-3.6v-26.1c0-1.1-0.9-2-2-2c-1.1,0-2,0.9-2,2V132h-3.9v-30.7c0-1.1-0.9-2-2-2c-1.1,0-2,0.9-2,2
			V132H106v-22.1c0-1.1-0.9-2-2-2s-2,0.9-2,2V132h-3.9v-18.2c0-1.1-0.9-2-2-2c-1.1,0-2,0.9-2,2l0,0V132h-3.9v-25.4c0-1.1-0.9-2-2-2
			c-1.1,0-2,0.9-2,2V132h-3.9v-16.9c0-1.1-0.9-2-2-2c-1.1,0-2,0.9-2,2V132h-3.9v-9.7c0-1.1-0.9-2-2-2c-1.1,0-2,0.9-2,2v9.7H67
			c-1.1,0-2,0.9-2,2c0,1.1,0.9,2,2,2h58.4c1.1,0,2-0.9,2-2C127.4,132.8,126.5,132,125.4,132z"/>
	</g>
	<rect x="138.3" y="96.9" class="st1" width="319.1" height="39.1"/>
	<text transform="matrix(1 0 0 1 138.2534 134.6559)"><tspan x="0" y="0" class="st0 st2 st3">Fund Manag</tspan><tspan x="275.7" y="0" class="st0 st2 st3">-</tspan></text>
</g>
</svg>
