<?xml version="1.0" encoding="utf-8"?>
<!-- Generator: Adobe Illustrator 23.0.1, SVG Export Plug-In . SVG Version: 6.00 Build 0)  -->
<svg version="1.1" id="Layer_1" xmlns="http://www.w3.org/2000/svg" xmlns:xlink="http://www.w3.org/1999/xlink" x="0px" y="0px"
	 viewBox="0 0 100 125" style="enable-background:new 0 0 100 125;" xml:space="preserve">
<title>Icone_Varie_04</title>
<g>
	<path d="M95,29V18.5h0c-0.5-8.7-36.4-9-40.5-9c-4.1,0-39.9,0.3-40.5,9h0V29c0,0.5,0.1,1,0.3,1.4c-6.1,1.5-9.2,3.5-9.3,6.1h0V47
		c0,2.8,3.6,5,9,6.7v9.8c0,0.5,0.1,0.9,0.3,1.3c-3.1,1.3-4.7,2.8-4.8,4.7h0V80c0,5,11.2,8.1,23.7,9.5c0.1,0,0.2,0,0.3,0.1
		c0,0,0.1,0,0.1,0c2.4,0.3,4.9,0.5,7.3,0.6c0.1,0,0.1,0,0.1,0c0,0,0.1,0,0.1,0c3.1,0.2,6.1,0.3,8.9,0.3s5.9-0.1,8.9-0.3
		c0,0,0.1,0,0.1,0c0,0,0.1,0,0.1,0c2.4-0.2,4.9-0.4,7.3-0.6c0,0,0.1,0,0.1,0c0.1,0,0.2,0,0.3-0.1C79.3,88.1,90.5,85,90.5,80V69.5h0
		c0-0.3-0.1-0.6-0.2-0.9c2.9-1.4,4.7-3.1,4.7-5.1V53h0c-0.1-2.5-3.1-4.5-9-6V36.5h0c0-0.3-0.1-0.5-0.1-0.8C91.3,34.1,95,31.8,95,29z
		 M17,22.8c1.4,0.9,2.9,1.5,4.5,2.1V32c-1.3-0.4-2.5-1.1-3.6-1.8l-0.5-0.4l0,0C17.1,29.5,17,29.3,17,29L17,22.8z M12.5,50
		C9.6,48.9,8,47.8,8,47v-6.2c1.4,0.9,2.9,1.5,4.5,2.1V50z M8,36.6c0.2-0.6,1.9-2.2,8.7-3.7c0.1,0.1,0.2,0.1,0.3,0.2
		c0.2,0.1,0.4,0.2,0.5,0.3c0.2,0.1,0.3,0.2,0.5,0.3c0.4,0.2,0.8,0.4,1.2,0.6c0.1,0,0.2,0.1,0.3,0.1c0.4,0.2,0.8,0.3,1.2,0.5
		c0.1,0,0.2,0.1,0.3,0.1c0.5,0.2,1,0.4,1.6,0.5c0.2,0.1,0.4,0.1,0.6,0.2c0.3,0.1,0.6,0.2,1,0.3c7,2,17.1,3.3,28,3.5
		c0.8,0,1.6,0,2.4,0c1.1,0,2.2,0,3.4,0c1.9,0,3.7-0.1,5.6-0.2c0,0,0,0,0,0c0,0,0,0,0.1,0c2.6-0.2,5-0.4,7.4-0.6h0c0,0,0,0,0,0
		c3.5-0.4,6.8-0.9,9.8-1.6c0.6-0.1,1.2-0.3,1.8-0.4c0.1,0,0.2-0.1,0.3-0.1c0,0,0,0.1,0,0.1c-0.2,1-2.5,2.4-6.6,3.6
		c-5.3,1.6-13.6,3.1-24.1,3.6c-0.5,0-1.1,0-1.6,0.1c-0.5,0-0.9,0-1.4,0c-1.2,0-2.5,0-3.8,0c-1.3,0-2.6,0-3.8,0c-0.5,0-0.9,0-1.4,0
		c-0.5,0-1.1,0-1.6-0.1c-10.5-0.5-18.8-2-24.1-3.6C10.5,39,8.2,37.6,8,36.6L8,36.6z M24.5,33v-7.2c1.4,0.4,2.9,0.7,4.5,1v7.3
		C27.4,33.8,25.8,33.4,24.5,33L24.5,33z M32,34.7v-7.4c1.5,0.2,3,0.4,4.5,0.6v7.4C34.9,35.2,33.4,34.9,32,34.7L32,34.7z M39.5,35.7
		v-7.4c1.5,0.1,3,0.3,4.5,0.4v7.5C42.4,36,40.9,35.9,39.5,35.7L39.5,35.7z M47,36.3v-7.5c1.5,0.1,3,0.1,4.5,0.1l0.2,0
		c0.4,0,0.8,0,1.2,0v7.5c-0.5,0-1.1,0-1.6,0c-0.2,0-0.3,0-0.5,0c-1,0-2.1-0.1-3.1-0.1c0,0,0,0-0.1,0C47.5,36.3,47.3,36.3,47,36.3
		L47,36.3z M56,36.5V29c0.4,0,0.8,0,1.2,0h0.2c1.5,0,3-0.1,4.5-0.1v7.5C60,36.4,58,36.5,56,36.5L56,36.5z M65,36.1v-7.5
		c1.5-0.1,3-0.2,4.5-0.4v7.4C68,35.9,66.5,36,65,36.1z M72.5,35.4V28c1.5-0.2,3-0.4,4.5-0.6v7.4c-0.2,0-0.3,0.1-0.5,0.1
		c-0.8,0.1-1.7,0.3-2.5,0.4c-0.2,0-0.4,0.1-0.6,0.1C73.1,35.3,72.8,35.3,72.5,35.4z M80,34.1v-7.3c1.6-0.3,3.1-0.7,4.5-1V33
		c-0.5,0.1-1.1,0.3-1.6,0.4c-0.7,0.2-1.5,0.4-2.3,0.6C80.4,34,80.2,34.1,80,34.1z M83,40.8V47c0,0.1,0,0.1,0,0.1l-0.1,0.2
		c-0.5,0.8-2,1.8-4.4,2.7v-7.1C80.1,42.3,81.6,41.6,83,40.8L83,40.8z M75.5,43.8V51c-1.3,0.4-2.8,0.8-4.5,1.1v-7.3
		C72.6,44.5,74.1,44.1,75.5,43.8L75.5,43.8z M68,45.3v7.4c-0.6,0.1-1.1,0.2-1.7,0.3c0,0-0.1,0-0.1,0c-0.9,0.1-1.8,0.3-2.7,0.4V46
		C65,45.8,66.5,45.6,68,45.3z M60.5,46.3v7.4c0,0-0.1,0-0.1,0c-0.2,0-0.4,0-0.6,0.1c-0.9,0.1-1.9,0.2-2.8,0.2c-0.2,0-0.4,0-0.6,0.1
		c-0.1,0-0.2,0-0.4,0v-7.5C57.5,46.6,59,46.4,60.5,46.3L60.5,46.3z M53,46.8v7.5c-0.1,0-0.1,0-0.2,0c-1.1,0.1-2.2,0.1-3.3,0.1
		c-0.1,0-0.2,0-0.3,0c-0.7,0-1.4,0-2.2,0V47c0.4,0,0.8,0,1.2,0c0.1,0,0.2,0,0.2,0C50,46.9,51.5,46.9,53,46.8L53,46.8z M44,47v7.5
		c-2,0-4-0.1-6-0.2v-7.5c1.5,0.1,3,0.1,4.5,0.1l0.2,0C43.2,47,43.6,47,44,47L44,47z M35,46.7v7.5c-0.6,0-1.1-0.1-1.7-0.1
		c-0.1,0-0.1,0-0.2,0c-0.9-0.1-1.8-0.2-2.6-0.3v-7.4C32,46.4,33.5,46.6,35,46.7z M27.5,46v7.4c-0.4-0.1-0.8-0.1-1.2-0.1
		c-0.4-0.1-0.8-0.1-1.2-0.2c-0.7-0.1-1.3-0.2-2-0.3c-0.1,0-0.1,0-0.1,0v-7.4C24.5,45.6,26,45.8,27.5,46z M16.2,51.2
		c-0.2-0.1-0.4-0.1-0.7-0.2v-7.3c1.4,0.4,2.9,0.7,4.5,1v7.3c-0.1,0-0.2-0.1-0.4-0.1c-0.4-0.1-0.8-0.2-1.1-0.3
		C17.7,51.6,16.9,51.4,16.2,51.2z M21.5,59.3v7.1c-1.4-0.5-2.7-1.2-3.8-2.1L17.2,64c-0.1-0.1-0.2-0.3-0.2-0.5v-6.2
		C18.4,58.1,19.9,58.8,21.5,59.3z M17,83c-2.9-1.1-4.5-2.2-4.5-3v-6.2c1.4,0.9,2.9,1.5,4.5,2.1L17,83z M24.5,85.1
		c-1.7-0.4-3.2-0.7-4.5-1.1v-7.2c1.4,0.4,2.9,0.7,4.5,1V85.1z M32,86.4c-1.6-0.2-3.1-0.4-4.5-0.7v-7.4c1.4,0.2,3,0.4,4.5,0.6
		L32,86.4z M39.5,87.1c-1.6-0.1-3.1-0.2-4.5-0.4v-7.4c1.5,0.1,3,0.3,4.5,0.4L39.5,87.1z M48.5,87.5c-2.1,0-4.1-0.1-6-0.2v-7.5
		c1.5,0.1,3,0.1,4.5,0.1h0.2c0.4,0,0.8,0,1.2,0V87.5z M57.5,87.3c-1.9,0.1-3.9,0.2-6,0.2V80c0.4,0,0.8,0,1.2,0H53
		c1.5,0,3-0.1,4.5-0.1L57.5,87.3z M65,86.7c-1.4,0.2-2.9,0.3-4.5,0.4v-7.5c1.5-0.1,3-0.2,4.5-0.4V86.7z M72.5,85.7
		c-1.4,0.2-2.9,0.5-4.5,0.7V79c1.5-0.2,3-0.4,4.5-0.6V85.7z M80,84c-1.3,0.4-2.8,0.8-4.5,1.1v-7.3c1.6-0.3,3.1-0.7,4.5-1V84z
		 M56.8,76.8c-0.5,0-1.1,0-1.6,0.1c-0.4,0-0.9,0-1.3,0C52.6,77,51.3,77,50,77s-2.6,0-3.8,0c-0.5,0-0.9,0-1.4,0c-0.5,0-1.1,0-1.6-0.1
		c-10.5-0.5-18.8-2-24.1-3.6c-4.1-1.3-6.4-2.6-6.6-3.6c0.1-0.4,0.9-1.3,3.9-2.4c0.1,0.1,0.3,0.2,0.4,0.3c0.2,0.1,0.3,0.2,0.5,0.3
		c0.1,0.1,0.3,0.2,0.4,0.2c3.4,1.7,7.1,2.9,10.9,3.5c0.1,0,0.2,0,0.3,0.1c0.5,0.1,0.9,0.2,1.4,0.3c2.3,0.4,4.9,0.8,7.5,1.1
		c0,0,0.1,0,0.1,0h0c2.4,0.3,4.9,0.5,7.5,0.7h0c2.1,0.1,4.3,0.2,6.5,0.2c0.9,0,1.7,0,2.5,0c0.6,0,1.3,0,1.9,0c2.4,0,4.8-0.1,7.1-0.2
		h0c6.7-0.3,13.4-1.3,20-2.8c0.2-0.1,0.5-0.1,0.7-0.2c0.2,0,0.3-0.1,0.5-0.1c0.4-0.1,0.8-0.2,1.2-0.4c0.1,0,0.1,0,0.1,0
		c0.5-0.1,0.9-0.3,1.4-0.5c-0.3,1-2.6,2.3-6.5,3.5C75.6,74.9,67.3,76.4,56.8,76.8L56.8,76.8z M24.5,67.5v-7.2c1.4,0.4,2.9,0.7,4.5,1
		v7.3C27.3,68.3,25.8,67.9,24.5,67.5z M32,69.2v-7.4c1.5,0.2,3,0.5,4.5,0.6v7.4C34.9,69.7,33.4,69.5,32,69.2L32,69.2z M39.5,70.2
		v-7.4c1.5,0.1,3,0.3,4.5,0.4v7.5c-0.3,0-0.7-0.1-1-0.1c-0.2,0-0.4,0-0.7-0.1C41.4,70.4,40.4,70.3,39.5,70.2L39.5,70.2z M47,70.8
		v-7.5c1.5,0.1,3,0.1,4.5,0.1l0.2,0c0.4,0,0.8,0,1.2,0V71c-0.5,0-1.1,0-1.6,0c-0.2,0-0.4,0-0.7,0c-0.9,0-1.8-0.1-2.7-0.1
		C47.6,70.8,47.3,70.8,47,70.8L47,70.8z M56,71v-7.5c0.4,0,0.8,0,1.2,0h0.2c1.5,0,3-0.1,4.5-0.1v7.5c-0.8,0-1.6,0.1-2.4,0.1l-0.3,0
		c-0.7,0-1.4,0-2.1,0.1c-0.1,0-0.3,0-0.4,0C56.6,71,56.3,71,56,71L56,71z M65,70.6v-7.5c1.5-0.1,3-0.2,4.5-0.4v7.4
		c-0.1,0-0.2,0-0.3,0c-0.1,0-0.3,0-0.5,0C67.5,70.4,66.3,70.5,65,70.6z M72.5,69.9v-7.4c1.5-0.2,3-0.4,4.5-0.6v7.4
		C75.6,69.5,74.1,69.7,72.5,69.9z M80,68.6v-7.3c1.6-0.3,3.1-0.7,4.5-1v7.2c0,0-0.1,0-0.1,0c-0.2,0.1-0.4,0.1-0.6,0.2
		C82.6,68,81.4,68.3,80,68.6z M87.5,80c0,0.8-1.6,1.9-4.5,3v-7.2c1.6-0.5,3.1-1.2,4.5-2.1V80z M92,63.5c0,0.8-1.3,1.7-3.6,2.7l0,0
		l-0.9,0.3v-7.1c1.6-0.5,3.1-1.2,4.5-2.1L92,63.5z M92,53.1c-0.1,1-2.4,2.4-6.6,3.6c-5.3,1.6-13.6,3.1-24.1,3.6
		c-0.5,0-1.1,0-1.6,0.1c-0.5,0-0.9,0-1.4,0c-1.2,0-2.5,0-3.8,0c-1,0-1.9,0-2.9,0c-0.4,0-0.7,0-1.1,0c-0.3,0-0.7,0-1,0
		c-11.4-0.4-20.3-1.9-25.9-3.7c-1.5-0.4-3-1-4.4-1.7c5.7,1.2,11.5,1.9,17.3,2.2c0,0,0,0,0,0h0c1.9,0.1,3.8,0.2,5.8,0.2
		c1.1,0,2.1,0,3.2,0c0.9,0,1.8,0,2.8,0c2.1,0,4.2-0.1,6.2-0.2h0c5.7-0.3,11.4-1,17-2.2c0.4-0.1,0.8-0.2,1.2-0.3
		c0.1,0,0.2-0.1,0.4-0.1c5.3-1.2,9.5-2.8,11.6-4.9c0,0,0.1,0,0.1-0.1C90.3,51.1,91.8,52.5,92,53.1z M85.4,22.2
		c-5.3,1.6-13.6,3.1-24.1,3.6c-0.5,0-1.1,0-1.6,0.1c-0.5,0-0.9,0-1.4,0c-1.2,0-2.5,0.1-3.8,0.1c-1.3,0-2.6,0-3.8-0.1
		c-0.5,0-0.9,0-1.4,0c-0.5,0-1.1,0-1.6-0.1c-10.5-0.5-18.8-2-24.1-3.6c-4.1-1.3-6.4-2.6-6.6-3.6c0.2-2.2,12.7-6.1,37.5-6.1
		c24.7,0,37.2,3.9,37.5,6.1C91.8,19.6,89.5,21,85.4,22.2z M92,29c0,0.8-1.6,1.9-4.5,3v-7.2c1.6-0.5,3.1-1.2,4.5-2.1V29z"/>
</g>
</svg>
