<?xml version="1.0" encoding="utf-8"?>
<!-- Generator: Adobe Illustrator 23.0.1, SVG Export Plug-In . SVG Version: 6.00 Build 0)  -->
<svg version="1.1" id="Layer_1" xmlns="http://www.w3.org/2000/svg" xmlns:xlink="http://www.w3.org/1999/xlink" x="0px" y="0px"
	 viewBox="0 0 100 125" style="enable-background:new 0 0 100 125;" xml:space="preserve">
<title>Icone_Varie_04</title>
<g>
	<path d="M84.7,64.2L63,42.5l21.7-21.7c3.6-3.6,3.6-9.4,0-13l0,0C83,6,80.7,5,78.2,5h0c-2.4,0-4.8,1-6.5,2.7L50,29.5L28.3,7.7
		c-3.6-3.6-9.4-3.6-13,0s-3.6,9.4,0,13L37,42.5L15.2,64.2c-3.6,3.6-3.6,9.4,0,13c1.7,1.7,4.1,2.7,6.5,2.7c2.4,0,4.8-1,6.5-2.7
		L50,55.5l21.7,21.7c3.6,3.6,9.4,3.6,13,0C88.3,73.6,88.3,67.8,84.7,64.2C84.7,64.2,84.7,64.2,84.7,64.2z M82.2,74.7
		c-2.2,2.2-5.8,2.2-8,0c0,0,0,0,0,0l-23-23c-0.7-0.7-1.8-0.7-2.5,0l-23,23c-2.2,2.2-5.8,2.2-8,0c-2.2-2.2-2.2-5.8,0-8l23-23
		c0.7-0.7,0.7-1.8,0-2.5l-23-23c-2.2-2.2-2.2-5.8,0-8s5.8-2.2,8,0l23,23c0.7,0.7,1.8,0.7,2.5,0l23-23c1.1-1.1,2.5-1.7,4-1.6h0
		c3.1,0,5.6,2.5,5.6,5.6c0,1.5-0.6,2.9-1.7,4l-23,23c-0.7,0.7-0.7,1.8,0,2.5l23,23C84.4,68.9,84.4,72.5,82.2,74.7
		C82.2,74.7,82.2,74.7,82.2,74.7L82.2,74.7z"/>
	<path d="M67.5,86.5c0-1-0.8-1.8-1.8-1.8c0,0,0,0,0,0H20.9c-1,0-1.8,0.8-1.8,1.8c0,1,0.8,1.8,1.8,1.8h44.9
		C66.7,88.3,67.5,87.5,67.5,86.5C67.5,86.5,67.5,86.5,67.5,86.5z"/>
	<path d="M79.1,91.4H46c-1,0-1.8,0.8-1.8,1.8c0,1,0.8,1.8,1.8,1.8h33.2c1,0,1.8-0.8,1.8-1.8C80.9,92.2,80.1,91.4,79.1,91.4z"/>
	<path d="M38.9,91.4h-4.7c-1,0-1.8,0.8-1.8,1.8c0,1,0.8,1.8,1.8,1.8h4.7c1,0,1.8-0.8,1.8-1.8C40.7,92.2,39.9,91.4,38.9,91.4z"/>
</g>
</svg>
