<?xml version="1.0" encoding="utf-8"?>
<!-- Generator: Adobe Illustrator 23.0.1, SVG Export Plug-In . SVG Version: 6.00 Build 0)  -->
<svg version="1.1" id="Layer_1" xmlns="http://www.w3.org/2000/svg" xmlns:xlink="http://www.w3.org/1999/xlink" x="0px" y="0px"
	 viewBox="0 0 100 125" style="enable-background:new 0 0 100 125;" xml:space="preserve">
<style type="text/css">
	.st0{fill:#01A3A4;}
</style>
<title>86</title>
<g>
	<path class="st0" d="M38,30.3c-1.2-0.9-2.9-0.7-3.9,0.4L6.5,60.3c-1.1,1.2-1.1,3.1,0.1,4.3c1.2,1.1,3.1,1.1,4.3-0.2l0,0l25.8-27.7
		l16.4,11.1c1.2,0.8,2.9,0.6,3.9-0.5l26.2-28.8V35c0,1.7,1.3,3,3,3s3-1.3,3-3V10.8l0,0V9L89,8.8l-0.2-0.2h-0.2l-0.3-0.2H62
		c-1.7,0-3,1.3-3,3s1.3,3,3,3h17.5l-25.2,27L38,30.3z"/>
	<path class="st0" d="M94.5,86.2H89V46.5c0-1.7-1.3-3-3-3s-3,1.3-3,3v39.7h-6V39.5c0-1.7-1.3-3-3-3s-3,1.3-3,3v46.7h-6V52.5
		c0-1.7-1.3-3-3-3s-3,1.3-3,3v33.7h-6V58.5c0-1.7-1.3-3-3-3s-3,1.3-3,3l0,0v27.7h-6V47.5c0-1.7-1.3-3-3-3s-3,1.3-3,3v38.7h-6V60.5
		c0-1.7-1.3-3-3-3s-3,1.3-3,3v25.7h-6V71.5c0-1.7-1.3-3-3-3s-3,1.3-3,3v14.7H5.5c-1.7,0-3,1.3-3,3s1.3,3,3,3h89c1.7,0,3-1.3,3-3
		S96.2,86.2,94.5,86.2z"/>
</g>
</svg>
