<svg xmlns="http://www.w3.org/2000/svg" data-name="Layer 1" viewBox="0 0 100 125" x="0px" y="0px"><title>Calendar</title><rect x="73.23" y="37.67" width="11.83" height="6.42" rx="2" ry="2"/><rect x="56.47" y="37.67" width="11.83" height="6.42" rx="2" ry="2"/><rect x="73.23" y="50.75" width="11.83" height="6.42" rx="2" ry="2"/><rect x="56.47" y="50.75" width="11.83" height="6.42" rx="2" ry="2"/><rect x="73.23" y="63.83" width="11.83" height="6.42" rx="2" ry="2"/><rect x="56.47" y="63.83" width="11.83" height="6.42" rx="2" ry="2"/><rect x="39.7" y="63.83" width="11.83" height="6.42" rx="2" ry="2"/><rect x="22.93" y="63.83" width="11.83" height="6.42" rx="2" ry="2"/><rect x="56.47" y="76.92" width="11.83" height="6.42" rx="2" ry="2"/><rect x="39.7" y="76.92" width="11.83" height="6.42" rx="2" ry="2"/><rect x="22.93" y="76.92" width="11.83" height="6.42" rx="2" ry="2"/><path d="M80.92,21a3,3,0,0,1-3-3V8a3,3,0,0,1,6,0V18A3,3,0,0,1,80.92,21Z"/><path d="M54,21a3,3,0,0,1-3-3V8a3,3,0,0,1,6,0V18A3,3,0,0,1,54,21Z"/><path d="M49.53,50.75H46a26.91,26.91,0,0,1-6.31,4.55,2,2,0,0,0,2,1.87h7.83a2,2,0,0,0,2-2V52.75A2,2,0,0,0,49.53,50.75Z"/><path d="M88.42,13v4.74a7.69,7.69,0,0,1-6.52,7.7A7.51,7.51,0,0,1,73.42,18V13H61.5v5A7.5,7.5,0,0,1,54,25.5l-.4,0A27.88,27.88,0,0,1,54.27,31H90V87.54A2.46,2.46,0,0,1,87.54,90H20.46A2.46,2.46,0,0,1,18,87.54V56.62a27.43,27.43,0,0,1-5-2.49V88.42A6.59,6.59,0,0,0,19.58,95H88.42A6.59,6.59,0,0,0,95,88.42V19.58A6.59,6.59,0,0,0,88.42,13Z"/><path d="M12,15.07V7.5A2.39,2.39,0,0,0,9.76,5,2.39,2.39,0,0,0,7.51,7.5V23.75H23.76a2.37,2.37,0,0,0,2.5-2.25,2.38,2.38,0,0,0-2.5-2.25H14.19A18,18,0,1,1,9.55,34,2.67,2.67,0,0,0,7.13,31.5,2.18,2.18,0,0,0,5,34a22.53,22.53,0,1,0,7-18.92Z"/><path d="M39.71,33.75H27.39a2.25,2.25,0,0,1,0-4.5H39.71a2.25,2.25,0,1,1,0,4.5Z"/><text x="0" y="115" fill="#000000" font-size="5px" font-weight="bold" font-family="'Helvetica Neue', Helvetica, Arial-Unicode, Arial, Sans-serif">Created by Markus</text><text x="0" y="120" fill="#000000" font-size="5px" font-weight="bold" font-family="'Helvetica Neue', Helvetica, Arial-Unicode, Arial, Sans-serif">from the Noun Project</text></svg>