<?xml version="1.0" encoding="utf-8"?>
<!-- Generator: Adobe Illustrator 23.0.1, SVG Export Plug-In . SVG Version: 6.00 Build 0)  -->
<svg version="1.1" id="Layer_1" xmlns="http://www.w3.org/2000/svg" xmlns:xlink="http://www.w3.org/1999/xlink" x="0px" y="0px"
	 viewBox="0 0 100 125" style="enable-background:new 0 0 100 125;" xml:space="preserve">
<title>setng cog</title>
<path d="M100,60V40l-13.5-0.9c-0.8-2.5-1.8-5-3-7.3l8.9-10.2L78.3,7.6l-10.2,8.9c-2.3-1.2-4.8-2.3-7.3-3L60,0H40l-0.9,13.5
	c-2.5,0.7-5,1.7-7.3,3L21.7,7.6L7.6,21.7l8.9,10.2c-1.2,2.3-2.2,4.8-3,7.3L0,40v20l13.5,0.9c0.8,2.5,1.8,5,3,7.3L7.6,78.3l14.1,14.1
	l10.1-8.9c2.3,1.2,4.8,2.3,7.3,3L40,100h20l0.9-13.5c2.5-0.7,5-1.7,7.3-3l10.2,8.9l14.1-14.1l-9-10.2c1.2-2.3,2.3-4.8,3-7.3L100,60z
	 M50,67.9c-9.9,0-17.9-8-17.9-17.9c0-9.9,8-17.9,17.9-17.9c9.9,0,17.9,8,17.9,17.9C67.9,59.9,59.9,67.9,50,67.9
	C50,67.9,50,67.9,50,67.9z"/>
</svg>
