<?xml version="1.0" encoding="utf-8"?>
<!-- Generator: Adobe Illustrator 23.0.1, SVG Export Plug-In . SVG Version: 6.00 Build 0)  -->
<svg version="1.1" id="Layer_1" xmlns="http://www.w3.org/2000/svg" xmlns:xlink="http://www.w3.org/1999/xlink" x="0px" y="0px"
	 viewBox="0 0 100 125" style="enable-background:new 0 0 100 125;" xml:space="preserve">
<path d="M39.2,90.4c5.6,0,9.1-2.7,11.2-5.4c2.1,2.7,5.6,5.4,11.2,5.4c5.1,0,9.2-1.6,12-4.6c4.9-5.3,4.3-13.1,4.2-13.4
	c0-0.5-0.4-0.8-0.9-0.9c-0.5-0.1-0.9,0.2-1.1,0.6c-0.5,1.4-1.8,2.5-2.8,3.2c-1.3,0.9-2.8,1.4-4.3,1.4c-4.5-0.1-5.9-4.4-6-4.5
	c-1-2.9-3.9-4.8-7.4-4.8c-1.8,0-3.5,0.6-4.9,1.7c-1.4-1.1-3.2-1.7-4.9-1.7c-3.6,0-6.5,1.9-7.4,4.8c0,0-1.5,4.4-6,4.5
	c-1.5,0-2.9-0.4-4.3-1.4c-1-0.7-2.3-1.8-2.8-3.2c-0.2-0.4-0.6-0.7-1.1-0.6c-0.5,0.1-0.8,0.4-0.9,0.9c0,0.3-0.6,8.1,4.2,13.4
	C30,88.9,34.1,90.4,39.2,90.4z M26.6,77c1.7,1.2,3.6,1.8,5.5,1.7c4.7-0.1,7.2-3.9,7.8-5.9c0.8-2.5,3.5-3.4,5.5-3.4
	c1.6,0,3.1,0.6,4.2,1.7c0.4,0.4,1,0.4,1.4,0c1.2-1.1,2.7-1.7,4.2-1.7c2,0,4.7,0.9,5.5,3.4c0.6,2,3.1,5.8,7.8,5.9
	c1.9,0.1,3.8-0.5,5.5-1.7c0.5-0.3,1-0.7,1.5-1.2c-0.3,2.5-1.1,6-3.6,8.7c-2.4,2.6-6,4-10.5,4c-5.6,0-8.7-3.1-10.3-5.7
	c-0.2-0.3-0.5-0.5-0.8-0.5s-0.7,0.2-0.8,0.5c-1.6,2.6-4.8,5.7-10.3,5.7c-4.6,0-8.1-1.3-10.5-4c-2.5-2.7-3.3-6.2-3.6-8.7
	C25.6,76.2,26.1,76.6,26.6,77z"/>
<path d="M89,39.9H71.3C67.7,22.7,60.7,15,55.5,11.5c-3.2-2.1-7.7-2.1-11,0C39.3,15,32.3,22.7,28.7,39.9H11c-0.5,0-1,0.4-1,1
	c0,0.4-0.1,10.9,6.1,18.9c0.2,0.2,0.5,0.4,0.8,0.4h66.3c0.3,0,0.6-0.1,0.8-0.4c6.1-7.9,6.1-18.4,6.1-18.9C90,40.3,89.5,39.9,89,39.9
	z M45.6,13.2c2.5-1.7,6.2-1.7,8.8,0c4.9,3.2,11.4,10.5,14.9,26.7H30.8C34.2,23.7,40.7,16.4,45.6,13.2z M88,41.9
	c-0.1,1-0.2,2.6-0.6,4.6H12.6c-0.4-2-0.5-3.6-0.6-4.6H88z M83.4,57l-6.6-8.5H87C86.3,51.1,85.2,54.2,83.4,57z M13,48.4h10.5
	l-6.8,8.8C14.8,54.3,13.7,51.2,13,48.4z M50.2,56.9l-6.5-8.4h13.1L50.2,56.9z M25.3,49.4l6.7,8.7H18.5L25.3,49.4z M27,48.4h13.1
	l-6.5,8.4L27,48.4z M41.9,49.4l6.7,8.7H35.1L41.9,49.4z M58.5,49.4l6.7,8.7H51.7L58.5,49.4z M60.2,48.4h13.1l-6.5,8.4L60.2,48.4z
	 M75.1,49.4l6.7,8.7H68.3L75.1,49.4z"/>
</svg>
