<svg xmlns="http://www.w3.org/2000/svg" xmlns:xlink="http://www.w3.org/1999/xlink" version="1.1" x="0px" y="0px" viewBox="0 0 128 160" style="enable-background:new 0 0 128 128;" xml:space="preserve"><g><path d="M64,127L64,127c15.6,0,29.9-5.7,40.9-15.1L79.9,87c-4.5,3.1-10,5-15.9,5c-15.5,0-28-12.5-28-28v0c0-13.8,9.9-25.2,23-27.5   V1.2C26.5,3.8,1,30.9,1,64v0C1,98.8,29.2,127,64,127z"/><path d="M87,79.9l24.9,24.9c8.4-9.8,13.8-22.2,14.8-35.9H91.5C90.8,73,89.2,76.7,87,79.9z"/><path d="M69,1.2v35.2C80.5,38.5,89.5,47.5,91.6,59h35.2C124.4,28.2,99.8,3.6,69,1.2z"/></g><text x="0" y="143" fill="#000000" font-size="5px" font-weight="bold" font-family="'Helvetica Neue', Helvetica, Arial-Unicode, Arial, Sans-serif">Created by Kokota</text><text x="0" y="148" fill="#000000" font-size="5px" font-weight="bold" font-family="'Helvetica Neue', Helvetica, Arial-Unicode, Arial, Sans-serif">from the Noun Project</text></svg>