<?xml version="1.0" encoding="utf-8"?>
<!-- Generator: Adobe Illustrator 23.0.1, SVG Export Plug-In . SVG Version: 6.00 Build 0)  -->
<svg version="1.1" id="Layer_1" xmlns="http://www.w3.org/2000/svg" xmlns:xlink="http://www.w3.org/1999/xlink" x="0px" y="0px"
	 viewBox="0 0 100 125" style="enable-background:new 0 0 100 125;" xml:space="preserve">
<title>collection2</title>
<path d="M65.2,56.6C65.2,56.6,65.2,56.6,65.2,56.6c10.3-15.1,6.5-35.7-8.6-46S21,4.3,10.7,19.3s-6.4,35.6,8.6,45.9
	c11.2,7.7,26,7.7,37.3,0c0,0,0,0,0,0l28,28c2.4,2.4,6.2,2.4,8.6,0s2.4-6.2,0-8.6L65.2,56.6z M38,65.3c-15.1,0-27.3-12.2-27.3-27.3
	c0-15.1,12.2-27.3,27.3-27.3S65.2,22.9,65.3,38c0,9.4-4.8,18.1-12.8,23.1C48.1,63.8,43.1,65.3,38,65.3z"/>
</svg>
