<?xml version="1.0" encoding="utf-8"?>
<!-- Generator: Adobe Illustrator 23.0.1, SVG Export Plug-In . SVG Version: 6.00 Build 0)  -->
<svg version="1.1" id="Layer_1" xmlns="http://www.w3.org/2000/svg" xmlns:xlink="http://www.w3.org/1999/xlink" x="0px" y="0px"
	 viewBox="0 0 64 80" style="enable-background:new 0 0 64 80;" xml:space="preserve">
<g>
	<g>
		<path d="M29.7,25c0.5,0.4,1.1,0.7,1.9,0.7v1.2h0.9v-1.2c0.7-0.1,1.3-0.3,1.8-0.7c0.4-0.4,0.6-1,0.6-1.6c0-0.7-0.2-1.3-0.7-1.7
			c-0.4-0.4-1.1-0.8-2-1.1c-0.4-0.2-0.7-0.4-0.9-0.5c-0.1-0.2-0.2-0.4-0.2-0.6c0-0.3,0.1-0.5,0.2-0.7s0.4-0.2,0.7-0.2
			s0.5,0.1,0.7,0.3c0.2,0.2,0.3,0.5,0.3,0.9h2l0,0c0-0.7-0.2-1.3-0.6-1.7c-0.4-0.5-1-0.7-1.7-0.8v-1.2h-0.9v1.2
			C31,17.4,30.4,17.6,30,18c-0.5,0.4-0.7,1-0.7,1.6c0,0.7,0.2,1.3,0.6,1.7c0.4,0.4,1.1,0.7,2,1.1c0.4,0.2,0.7,0.3,0.9,0.5
			c0.1,0.2,0.2,0.4,0.2,0.7c0,0.3-0.1,0.5-0.2,0.6c-0.1,0.2-0.4,0.2-0.7,0.2c-0.4,0-0.7-0.1-0.9-0.3c-0.2-0.2-0.3-0.5-0.3-1H29l0,0
			C29,23.9,29.2,24.6,29.7,25z"/>
		<path d="M32,30.6c5.1,0,9.2-4.1,9.2-9.2s-4.1-9.2-9.2-9.2s-9.2,4.1-9.2,9.2S26.9,30.6,32,30.6z M32,14.7c3.7,0,6.7,3,6.7,6.7
			s-3,6.7-6.7,6.7s-6.7-3-6.7-6.7S28.3,14.7,32,14.7z"/>
		<path d="M12.5,42.9c-0.8,0-1.5,0.7-1.5,1.5s0.7,1.5,1.5,1.5s1.5-0.7,1.5-1.5C14,43.6,13.3,42.9,12.5,42.9z"/>
		<path d="M56.7,34.9L56.7,34.9c-1.3-3.2-4.8-4.8-8.1-3.7l-5.9,2c-1.5-1.4-3.6-2.1-5.7-1.6l-6.5,1.7c-1.4,0.4-2.9,0.1-4.1-0.6
			c-2-1.1-4.2-1.7-6.4-1.7l0,0h-2.2v-2c0-0.7-0.6-1.3-1.3-1.3H8.4c-0.7,0-1.3,0.6-1.3,1.3v21.6c0,0.7,0.6,1.3,1.3,1.3h8.2
			c0.7,0,1.3-0.6,1.3-1.3V47H20c1.4,0,2.7,0.3,4,0.8l1.6,0.7c1.5,0.6,3.1,1,4.6,1c1.7,0,3.4-0.4,5-1.2c5.9-2.9,16.2-7.9,19.9-9.7
			C56.6,37.9,57.3,36.3,56.7,34.9z M15.3,49.3H9.6V30.2h5.7v2v13.4V49.3z M54.2,36.3c-3.7,1.8-14.1,6.8-19.9,9.7
			c-2.4,1.2-5.1,1.2-7.6,0.1L25,45.4c-1.6-0.7-3.3-1.1-5-1.1h-2.2V33.5H20l0,0c1.8,0,3.5,0.5,5.1,1.4c1.8,1.1,4,1.4,6,0.9l6.5-1.7
			c1.7-0.4,3.5,0.5,4.1,2.1l0.1,0.3L31,40.8c-0.6,0.3-1,1-0.7,1.6c0.2,0.5,0.7,0.8,1.2,0.8c0.2,0,0.3,0,0.5-0.1l12-4.8l0,0l0,0
			c0,0,0,0,0.1,0c0,0,0,0,0.1,0c0,0,0,0,0.1,0l0,0c0,0,0,0,0.1,0l0,0c0,0,0,0,0.1,0l0,0l0,0l0,0c0,0,0,0,0-0.1l0,0c0,0,0,0,0-0.1
			l0,0c0,0,0,0,0-0.1c0,0,0,0,0-0.1c0,0,0,0,0-0.1c0,0,0,0,0-0.1c0,0,0,0,0-0.1c0,0,0,0,0-0.1c0,0,0,0,0-0.1c0,0,0,0,0-0.1
			c0,0,0,0,0-0.1c0,0,0,0,0-0.1c0,0,0,0,0-0.1c0,0,0,0,0-0.1c0,0,0,0,0-0.1c0,0,0,0,0-0.1c0,0,0,0,0-0.1c0,0,0,0,0-0.1
			c0,0,0,0,0-0.1l0,0l0,0l0,0L44,35.1l5.3-1.8c2-0.7,4.1,0.3,4.9,2.2v0.1C54.4,36,54.4,36.3,54.2,36.3z"/>
	</g>
</g>
</svg>
