<?xml version="1.0" encoding="utf-8"?>
<!-- Generator: Adobe Illustrator 23.0.1, SVG Export Plug-In . SVG Version: 6.00 Build 0)  -->
<svg version="1.1" id="Layer_1" xmlns="http://www.w3.org/2000/svg" xmlns:xlink="http://www.w3.org/1999/xlink" x="0px" y="0px"
	 viewBox="0 0 56 70" style="enable-background:new 0 0 56 70;" xml:space="preserve">
<title>down-button-2</title>
<path d="M28,56C12.5,56,0,43.5,0,28S12.5,0,28,0s28,12.5,28,28S43.5,56,28,56z M28,4C14.7,4,4,14.7,4,28s10.7,24,24,24
	s24-10.7,24-24S41.3,4,28,4z M28,42v-9.9l-0.3-0.3l-7.5-10.9c-0.2-0.4-0.6-0.7-1-0.8H14c-1.3,0-1.7,1.2-0.9,2.2l14,19.3
	C27.4,41.8,27.7,42,28,42z M29,41.5l14-19.3c0.7-1,0.3-2.2-0.9-2.2h-5.2c-0.4,0.1-0.8,0.4-1,0.8l-7.6,10.9L28,32v10
	C28.4,41.9,28.7,41.8,29,41.5z"/>
<rect x="-101.3" y="93.7" style="fill:none;" width="98" height="2.5"/>
</svg>
