<svg xmlns="http://www.w3.org/2000/svg" width="77.948" height="80" viewBox="0 0 77.948 80">
  <g id="UserImg" transform="translate(-1702.836 -9)">
    <g id="Path_5" data-name="Path 5" transform="translate(1702.836 9)" fill="#fff">
      <path d="M 38.97409820556641 78.5 C 33.91934204101563 78.5 29.01622009277344 77.48414611816406 24.40092086791992 75.48065185546875 C 19.93968772888184 73.54404449462891 15.93214225769043 70.7706298828125 12.48959827423096 67.23748016357422 C 9.04440975189209 63.70159912109375 6.339375972747803 59.58373260498047 4.449620246887207 54.99826812744141 C 2.492398262023926 50.24905395507813 1.499998211860657 45.20291137695313 1.499998211860657 40 C 1.499998211860657 34.79708862304688 2.492398262023926 29.75094413757324 4.449620246887207 25.00173377990723 C 6.339375972747803 20.41626739501953 9.04440975189209 16.29840087890625 12.48959827423096 12.76252269744873 C 15.93214225769043 9.229366302490234 19.93968772888184 6.455955505371094 24.40092086791992 4.519344329833984 C 29.01622009277344 2.515855550765991 33.91934204101563 1.5 38.97409820556641 1.5 C 44.02885437011719 1.5 48.93197631835938 2.515855550765991 53.54727554321289 4.519344329833984 C 58.00851058959961 6.455955505371094 62.01605224609375 9.229366302490234 65.45859527587891 12.76252269744873 C 68.90378570556641 16.29840087890625 71.60881805419922 20.41626739501953 73.49857330322266 25.00173377990723 C 75.45579528808594 29.75094413757324 76.44819641113281 34.79708862304688 76.44819641113281 40 C 76.44819641113281 45.20291137695313 75.45579528808594 50.24905395507813 73.49857330322266 54.99826812744141 C 71.60881805419922 59.58373260498047 68.90378570556641 63.70159912109375 65.45859527587891 67.23748016357422 C 62.01605224609375 70.7706298828125 58.00851058959961 73.54404449462891 53.54727554321289 75.48065185546875 C 48.93197631835938 77.48414611816406 44.02885437011719 78.5 38.97409820556641 78.5 Z" stroke="none"/>
      <path d="M 38.97409820556641 3 C 34.12605667114258 3 29.42389678955078 3.97412109375 24.99821853637695 5.895294189453125 C 20.71676635742188 7.753868103027344 16.86971282958984 10.41651916503906 13.56394958496094 13.80930328369141 C 10.25288391113281 17.20753479003906 7.652992248535156 21.16549301147461 5.836471557617188 25.57328033447266 C 3.954322814941406 30.14029312133789 3.000007629394531 34.99414825439453 3.000007629394531 40 C 3.000007629394531 45.00585174560547 3.954322814941406 49.85970687866211 5.836471557617188 54.42671966552734 C 7.652992248535156 58.83449554443359 10.25288391113281 62.79246520996094 13.56394958496094 66.19068145751953 C 16.86972427368164 69.58346557617188 20.71676635742188 72.24613189697266 24.99821853637695 74.10470581054688 C 29.42389678955078 76.02587890625 34.12605667114258 77 38.97409820556641 77 C 43.82213973999023 77 48.52429962158203 76.02587890625 52.94997787475586 74.10470581054688 C 57.23143005371094 72.24613189697266 61.07847213745117 69.58346557617188 64.38424682617188 66.19068145751953 C 67.6953125 62.79246520996094 70.29520416259766 58.83449554443359 72.11172485351563 54.42671966552734 C 73.99387359619141 49.85970687866211 74.94818878173828 45.00585174560547 74.94818878173828 40 C 74.94818878173828 34.99414825439453 73.99387359619141 30.14029312133789 72.11172485351563 25.57328033447266 C 70.29520416259766 21.16549301147461 67.6953125 17.20753479003906 64.38424682617188 13.80930328369141 C 61.07848358154297 10.41651916503906 57.23143005371094 7.753868103027344 52.94997787475586 5.895294189453125 C 48.52429962158203 3.97412109375 43.82213973999023 3 38.97409820556641 3 M 38.97409820556641 0 C 60.49889755249023 0 77.94818878173828 17.90859985351563 77.94818878173828 40 C 77.94818878173828 62.09138488769531 60.49889755249023 80 38.97409820556641 80 C 17.44929885864258 80 7.62939453125e-06 62.09138488769531 7.62939453125e-06 40 C 7.62939453125e-06 17.90859985351563 17.44929885864258 0 38.97409820556641 0 Z" stroke="none" fill="#707070"/>
    </g>
    <g id="noun_Mexican_1816101" transform="translate(1713.554 17.5)">
      <path id="Path_3" data-name="Path 3" d="M34.561,84.255a9.642,9.642,0,0,0,8-3.957,9.642,9.642,0,0,0,8,3.957,11.139,11.139,0,0,0,8.568-3.371c3.5-3.884,3.07-9.6,3-9.82a.7.7,0,0,0-.643-.66.716.716,0,0,0-.785.44,5.9,5.9,0,0,1-5.07,3.371c-3.213-.073-4.213-3.224-4.284-3.3A5.381,5.381,0,0,0,46.057,67.4a5.537,5.537,0,0,0-3.5,1.246,5.686,5.686,0,0,0-3.5-1.246,5.256,5.256,0,0,0-5.284,3.518s-1.071,3.224-4.284,3.3a5,5,0,0,1-3.07-1.026,5.342,5.342,0,0,1-2-2.345.716.716,0,0,0-.785-.44.768.768,0,0,0-.643.66c0,.22-.428,5.936,3,9.82C27.991,83.156,30.919,84.255,34.561,84.255Zm-9-9.82a6.062,6.062,0,0,0,9.5-3.078,3.965,3.965,0,0,1,3.927-2.492,4.153,4.153,0,0,1,3,1.246.678.678,0,0,0,1,0,4.405,4.405,0,0,1,3-1.246,3.965,3.965,0,0,1,3.927,2.492,6.062,6.062,0,0,0,9.5,3.078,5.659,5.659,0,0,0,1.071-.879,11.431,11.431,0,0,1-2.571,6.376,9.707,9.707,0,0,1-7.5,2.931,8.224,8.224,0,0,1-7.355-4.177.726.726,0,0,0-.571-.366.635.635,0,0,0-.571.366,8.316,8.316,0,0,1-7.355,4.177c-3.285,0-5.784-.953-7.5-2.931a11.431,11.431,0,0,1-2.571-6.376Z" transform="translate(-13.711 -25.28)" fill="#1abc9c"/>
      <path id="Path_4" data-name="Path 4" d="M66.409,31.892H53.771C51.2,19.287,46.2,13.644,42.489,11.079a7.258,7.258,0,0,0-7.854,0c-3.713,2.565-8.711,8.208-11.282,20.813H10.714a.725.725,0,0,0-.714.733c0,.293-.071,7.988,4.356,13.851a.874.874,0,0,0,.571.293H62.268a.644.644,0,0,0,.571-.293c4.356-5.789,4.356-13.484,4.356-13.851A.839.839,0,0,0,66.409,31.892ZM35.42,12.325a5.749,5.749,0,0,1,6.284,0c3.5,2.345,8.14,7.695,10.639,19.567H24.852C27.28,20.02,31.921,14.67,35.42,12.325ZM65.7,33.357a31.184,31.184,0,0,1-.428,3.371H11.856a31.184,31.184,0,0,1-.428-3.371ZM62.411,44.423,57.7,38.194h7.283A22.66,22.66,0,0,1,62.411,44.423Zm-50.268-6.3h7.5L14.784,44.57A21.266,21.266,0,0,1,12.142,38.121ZM38.7,44.35l-4.641-6.156h9.354Zm-17.78-5.5,4.784,6.376h-9.64Zm1.214-.733h9.354l-4.641,6.156Zm10.639.733,4.784,6.376h-9.64Zm11.853,0,4.784,6.376h-9.64Zm1.214-.733H55.2l-4.641,6.156Zm10.639.733,4.784,6.376h-9.64Z" transform="translate(-10 -9.925)" fill="#1abc9c"/>
    </g>
  </g>
</svg>
