<?xml version="1.0" encoding="utf-8"?>
<!-- Generator: Adobe Illustrator 23.0.1, SVG Export Plug-In . SVG Version: 6.00 Build 0)  -->
<svg version="1.1" id="Layer_1" xmlns="http://www.w3.org/2000/svg" xmlns:xlink="http://www.w3.org/1999/xlink" x="0px" y="0px"
	 viewBox="0 0 100 125" style="enable-background:new 0 0 100 125;" xml:space="preserve">
<title>Icone_Varie_04</title>
<g>
	<path d="M92.6,11.7L92.6,11.7c-1.5-1.6-3.7-2.5-5.9-2.5h0c-2.2,0-4.3,0.9-5.8,2.5L38.5,54.8L19.1,35.1c-3.2-3.2-8.3-3.3-11.6-0.1
		c0,0-0.1,0.1-0.1,0.1c-3.2,3.3-3.2,8.5,0,11.8l27.3,27.8c1,1,2.4,1.6,3.9,1.6h0c1.5,0,2.8-0.6,3.9-1.6l50.2-51.1
		C95.8,20.3,95.8,15,92.6,11.7z M90.3,21.3L40.1,72.4c-0.8,0.9-2.2,0.9-3,0c0,0,0,0,0,0L9.7,44.6c-2-2-2-5.3,0-7.3c1.9-2,5-2,7-0.1
		c0,0,0.1,0.1,0.1,0.1l20.6,21c0.6,0.6,1.7,0.7,2.3,0c0,0,0,0,0,0L83.2,14c0.9-1,2.2-1.5,3.5-1.5h0c1.3,0,2.6,0.5,3.5,1.5
		C92.2,16,92.2,19.3,90.3,21.3z"/>
	<path d="M66,83c0-0.9-0.7-1.6-1.6-1.6c0,0,0,0,0,0h-41c-0.9,0-1.6,0.7-1.6,1.6c0,0.9,0.7,1.6,1.6,1.6h41C65.3,84.6,66,83.9,66,83
		C66,83,66,83,66,83z"/>
	<path d="M76.6,87.5H46.3c-0.9,0-1.6,0.7-1.6,1.6c0,0.9,0.7,1.6,1.6,1.6h30.3c0.9,0,1.6-0.7,1.6-1.6C78.2,88.2,77.5,87.5,76.6,87.5z
		"/>
	<path d="M39.9,87.5h-4.3c-0.9,0-1.6,0.7-1.6,1.6c0,0.9,0.7,1.6,1.6,1.6h4.3c0.9,0,1.6-0.7,1.6-1.6C41.5,88.2,40.8,87.5,39.9,87.5z"
		/>
</g>
</svg>
